<svg width="160" height="212" fill="none" xmlns="http://www.w3.org/2000/svg"><path d="M24.892 66.452h111.491v104.717c0 22.091-17.909 40-40 40H64.892c-22.092 0-40-17.909-40-40V66.452z" fill="url(#paint0_linear)"/><path d="M121.201 99.344c10.172-6.2 15.362-14.49 15.118-22.671 0 0-.208-13.968-.499-14.431-.535-8.644-5.877.38-17.293-6.115-22.542-12.526-58.084-12.642-78.87.03-10.613 6.47-16.275-3.723-15.74 4.92l.343 15.358c.535 8.644 6.656 16.444 17.63 23.209 22.541 12.526 58.083 12.641 79.311-.3z" fill="url(#paint1_linear)"/><path d="M120.907 83.887c21.227-12.94 19.739-33.816-2.802-46.341-22.541-12.526-58.524-12.372-79.31.3-20.784 12.67-19.738 33.815 2.803 46.34 22.54 12.526 58.081 12.642 79.309-.299z" fill="url(#paint2_linear)"/><path d="M110.059 78.317c15.477-9.435 14.396-24.79-2.139-34.57-16.977-9.509-42.973-9.036-58.45.4-15.477 9.435-14.686 24.328 1.849 34.106 16.977 9.51 43.263 9.5 58.74.064z" fill="url(#paint3_linear)"/><path d="M107.253 47.427c-16.695-9.051-42.997-9.041-58.482.4-5.752 3.506-8.861 7.325-10.212 11.994.035-5.79 3.89-11.345 10.969-15.66 15.485-9.442 41.787-9.452 58.773.063 10.688 6.304 15.194 14.455 12.352 22.597.338-7.257-4.027-14.21-13.4-19.394z" fill="url(#paint4_linear)"/><path d="M41.585 99.573C30.439 93.53 25.21 85.453 24.522 77.528c0 0-.217-1.103-.357-2.302 1.13 7.656 6.59 14.903 17 20.753 22.873 13.015 58.187 12.667 79.453-.3 10.19-6.214 15.39-14.52 15.146-22.717l.419 3.596c.244 8.197-4.513 16.233-15.146 22.716-21.265 12.968-56.87 12.851-79.452.3z" fill="url(#paint5_linear)"/><path d="M41.282 86.001c-10.859-5.582-16.55-13.673-17.53-22.068 2.018 7.12 7.721 13.277 17.11 18.47 22.885 13.023 58.216 12.674 79.492-.3 11.081-6.757 15.992-15.533 14.721-24.393 3.033 9.713-1.89 20.423-14.301 27.991-20.985 13.439-56.607 13.323-79.492.3z" fill="url(#paint6_linear)"/><path fill-rule="evenodd" clip-rule="evenodd" d="M84.746 54.535c-2.165-1.72-5.47-1.385-9.033-.363l-2.588-2.534-2.622.927 2.52 2.467c-.69.243-1.386.5-2.077.756l-2.536-2.483-2.62.926 2.586 2.533c-.561.208-1.112.41-1.656.603l-.008-.008-3.617 1.278 1.683 1.647s1.914-.706 1.903-.674c1.063-.375 1.78-.135 2.199.143l2.948 2.886a3.31 3.31 0 01.288-.087l-.276.097 4.129 4.044c.154.213.277.596-.464.86.052.005-1.906.673-1.906.673l1.36 2.026 3.413-1.207c.386-.136.77-.268 1.15-.399l.732-.253 2.619 2.562 2.62-.925-2.59-2.536a146.65 146.65 0 002.106-.728l2.576 2.524 2.622-.927-2.612-2.558c4.256-1.707 6.675-3.451 4.57-6.02-1.693-2.07-4.153-2.39-7.017-1.86 1.054-.993 1.185-2.131-.403-3.39h.001zm1.927 6.776c1.796 1.757-2.938 3.378-5.103 4.119l-.513.177-3.467-3.395c.18-.063.393-.143.635-.233 2.169-.808 6.613-2.464 8.449-.668zm-10.235-.802c1.81-.616 5.754-1.96 4.123-3.556-1.668-1.634-5.366-.247-7.171.43-.203.076-.383.143-.532.196l3.145 3.08c.123-.044.27-.094.435-.15z" fill="#E4A86B"/><defs><linearGradient id="paint0_linear" x1="80.637" y1="59.688" x2="80.637" y2="211.169" gradientUnits="userSpaceOnUse"><stop stop-color="#FFBB79"/><stop offset="1" stop-color="#FFF4C0" stop-opacity="0"/></linearGradient><linearGradient id="paint1_linear" x1="25.049" y1="79.333" x2="136.03" y2="70.534" gradientUnits="userSpaceOnUse"><stop stop-color="#FFBB96"/><stop offset=".227" stop-color="#FFFBC9"/><stop offset=".54" stop-color="#F9B673"/><stop offset=".639" stop-color="#F9B876"/><stop offset=".725" stop-color="#FABE81"/><stop offset=".806" stop-color="#FCC993"/><stop offset=".859" stop-color="#FED2A3"/><stop offset=".97" stop-color="#FFC28C"/></linearGradient><linearGradient id="paint2_linear" x1="74.191" y1="41.949" x2="106.415" y2="172.295" gradientUnits="userSpaceOnUse"><stop offset=".035" stop-color="#FFBA78"/><stop offset=".395" stop-color="#FFC987"/><stop offset="1" stop-color="#FEECA8"/></linearGradient><linearGradient id="paint3_linear" x1="111.021" y1="77.907" x2="-23.557" y2="12.467" gradientUnits="userSpaceOnUse"><stop offset=".035" stop-color="#FFBA78"/><stop offset=".395" stop-color="#FFC987"/><stop offset="1" stop-color="#FEECA8"/></linearGradient><linearGradient id="paint4_linear" x1="107.675" y1="37.157" x2="61.857" y2="73.146" gradientUnits="userSpaceOnUse"><stop stop-color="#FFBB96"/><stop offset=".227" stop-color="#FFFBC9"/><stop offset=".54" stop-color="#F9B673"/><stop offset=".639" stop-color="#F9B876"/><stop offset=".725" stop-color="#FABE81"/><stop offset=".806" stop-color="#FCC993"/><stop offset=".859" stop-color="#FED2A3"/><stop offset=".97" stop-color="#FFC28C"/></linearGradient><linearGradient id="paint5_linear" x1="25.756" y1="92.422" x2="136.218" y2="83.665" gradientUnits="userSpaceOnUse"><stop stop-color="#FFBB96"/><stop offset=".227" stop-color="#FFFBC9"/><stop offset=".54" stop-color="#F9B673"/><stop offset=".639" stop-color="#F9B876"/><stop offset=".725" stop-color="#FABE81"/><stop offset=".806" stop-color="#FCC993"/><stop offset=".859" stop-color="#FED2A3"/><stop offset=".97" stop-color="#FFC28C"/></linearGradient><linearGradient id="paint6_linear" x1="121.093" y1="70.344" x2="58.115" y2="56.725" gradientUnits="userSpaceOnUse"><stop stop-color="#FFBB96"/><stop offset=".227" stop-color="#FFFBC9"/><stop offset=".54" stop-color="#F9B673"/><stop offset=".639" stop-color="#F9B876"/><stop offset=".725" stop-color="#FABE81"/><stop offset=".806" stop-color="#FCC993"/><stop offset=".859" stop-color="#FED2A3"/><stop offset=".97" stop-color="#FFC28C"/></linearGradient></defs></svg>