<svg width="161" height="213" fill="none" xmlns="http://www.w3.org/2000/svg"><path d="M25.107 67.365h111.645v104.916c0 22.092-17.909 40-40 40H65.107c-22.091 0-40-17.908-40-40V67.365z" fill="url(#paint0_linear)"/><path d="M121.549 100.303c10.185-6.21 15.383-14.511 15.139-22.703 0 0-.209-13.987-.5-14.45-.536-8.656-5.885.38-17.317-6.124-22.573-12.544-58.163-12.66-78.977.03-10.629 6.479-16.298-3.728-15.763 4.927l.344 15.379c.535 8.655 6.665 16.467 17.654 23.24 22.572 12.544 58.163 12.66 79.42-.299z" fill="url(#paint1_linear)"/><path d="M121.254 84.825c21.257-12.96 19.766-33.863-2.806-46.406s-58.604-12.389-79.417.3c-20.814 12.689-19.766 33.863 2.805 46.405 22.572 12.543 58.162 12.66 79.418-.3z" fill="url(#paint2_linear)"/><path d="M110.392 79.247c15.498-9.448 14.415-24.825-2.142-34.618-17-9.522-43.032-9.048-58.53.4-15.499 9.448-14.707 24.361 1.85 34.154 17 9.522 43.324 9.512 58.822.064z" fill="url(#paint3_linear)"/><path d="M107.582 48.314c-16.718-9.064-43.056-9.054-58.563.4-5.76 3.512-8.873 7.335-10.225 12.011.035-5.798 3.894-11.36 10.983-15.682 15.507-9.454 41.845-9.464 58.855.064 10.702 6.313 15.214 14.474 12.369 22.627.338-7.267-4.034-14.23-13.419-19.42z" fill="url(#paint4_linear)"/><path d="M41.856 87.855c-10.874-5.59-16.665-16.52-17.645-24.926 2.02 7.13 7.822 16.122 17.224 21.323 22.916 13.04 58.296 12.692 79.601-.3 11.097-6.767 16.462-14.37 15.189-23.241 3.036 9.726-2.341 19.264-14.769 26.843-21.013 13.458-56.684 13.341-79.6.301z" fill="url(#paint5_linear)"/><g clip-path="url(#clip0)"><path fill-rule="evenodd" clip-rule="evenodd" d="M67.792 53.57c-.346-.647-2.112-.648-2.454-.005-.352.48.36 1.067 1.252 1.054.886.012 1.574-.572 1.202-1.048zm-7.727 4.871c-.44-.307-1.402-.22-1.658.142-.447.451.458 1.057 1.283.847.697-.116.946-.71.375-.989zM75.72 50.12c-.77.35-1.97-.22-1.528-.733.26-.445 1.204-.443 1.77-.201.312.306.348.731-.242.934zm-9.44 9.042c-.749-.567-2.496-.364-2.76.337-.333.606.632 1.278 1.718 1.184 1.234-.034 1.874-.992 1.042-1.52zm8.948-5.896c-.525-.687.777-1.475 1.98-1.209 1.015.162 1.361.891.924 1.401-.706.602-2.482.53-2.904-.192zm-4.556 2.93c-.64.43-.754 1.132-.014 1.555.56.371 1.473.41 2.225.262l.165-.083c.307-.152.626-.31.737-.543.366-.557-.195-1.26-1.204-1.422-.663-.158-1.358.018-1.909.23zM60.16 65.101c.254-.633 1.92-.717 2.402-.141.497.452-.092 1.095-.983 1.14-.898.08-1.732-.5-1.42-1zm27.07-14.83c-.659-.462-2.11-.213-2.233.378-.222.55.809 1.076 1.714.879.906-.131 1.218-.894.518-1.257zm-10.934 6.974c.599-.745 2.122-1.157 3.503-.976 1.74.19 2.94 1.325 2.437 2.308-.434 1.07-2.687 1.688-4.387 1.186-1.623-.39-2.364-1.628-1.553-2.518zm-1.458 2.137c-1.578-.333-3.395.24-3.94 1.134-.609.937.357 2.093 2.019 2.391 1.636.356 3.591-.245 4.043-1.215.517-.93-.483-2.045-2.122-2.31zm-7.552 5.454c-.599-.44-.407-1.065.186-1.463.771-.352 1.86-.357 2.638.008.651.431.799 1.137.065 1.56-.734.508-2.246.448-2.89-.105zm18.393-10.514c-.92-.578-2.771-.323-3.111.44-.464.76.865 1.61 2.213 1.402 1.416-.132 1.97-1.285.898-1.842zM73.12 64.419c.696-.717 2.258-1.091 3.627-.846 1.42.223 2.46 1.075 2.317 1.928-.063 1.165-2.356 2.046-4.229 1.596-1.845-.339-2.704-1.73-1.715-2.678zm13.948-7.008c-1.367-.208-2.834.22-3.5.923-.954.98.037 2.368 1.926 2.66 1.727.339 3.725-.372 4.026-1.407.356-.948-.798-1.99-2.452-2.176zm-19.032 11.27c.515-.67 2.368-.667 2.865.015.553.562-.226 1.343-1.335 1.336-1.167.067-2.1-.753-1.53-1.35zm23.633-13.916c-.67.435-.557 1.088.164 1.48.464.108.971.208 1.467.116 1.089-.18 1.514-1.084.633-1.535-.582-.392-1.602-.34-2.264-.06zM64.347 71.303c.28-.42 1.34-.526 1.787-.132.61.386-.076 1.07-.95.96-.671-.04-1.06-.476-.837-.828zM97.348 52.49c-.556-.16-1.305.063-1.404.416-.271.526 1.055 1.029 1.7.577.585-.25.396-.866-.296-.993zM80.416 65.496c.972-.969 3.501-1.147 4.882-.354 1.472.757 1.305 2.284-.365 2.884-1.214.508-3.049.394-4.08-.246-1.022-.59-1.208-1.585-.437-2.284zm10.156-3.403c-1.382-.829-3.974-.637-4.935.362-.594.578-.606 1.353.032 1.928.872.912 3.17 1.181 4.578.552 1.592-.612 1.757-2.091.325-2.842zM76.41 68.807c.767-.632 2.68-.53 3.192.206.673.71-.434 1.653-1.81 1.554-1.451-.02-2.28-1.118-1.382-1.76zm18.418-9.18c-.843-.564-2.579-.394-3.055.29-.678.767.693 1.759 2.13 1.53 1.39-.13 1.955-1.26.925-1.82zm5.565.323c-.932-.166-1.152-.978-.37-1.302.31-.186.772-.18 1.189-.174l.073.001.069.032c.391.176.839.38.822.695.112.534-.948.979-1.783.748zm-23.35 13.366c-.598-.512-2.126-.353-2.331.256-.29.525.648 1.095 1.56.956.908-.097 1.35-.788.771-1.212zm11.4-6.14c.454-.69 2.218-.878 3.051-.302 1.068.55.475 1.707-.93 1.821-1.41.216-2.79-.76-2.121-1.52zm-1.748 3.817c-.726-.495-2.302-.323-2.63.299-.305.393.042.829.525 1.12.62.165 1.436.242 1.971-.056.729-.313.802-.998.134-1.362zm8.98-6.443c.27-.678 1.933-.897 2.709-.367.9.502.312 1.501-.935 1.553-1.101.112-2.113-.569-1.774-1.186zm6.442.732c-.407.366-.195.927.612 1.025.894.139 1.647-.535 1.048-.955-.401-.335-1.158-.263-1.66-.07zM86.295 75.376c-.26-.3-.336-.702.215-.906.704-.354 1.899.114 1.632.628-.165.505-1.247.574-1.847.278zm8.963-5.335c-.787.104-1.242.693-.795 1.099.348.47 1.598.555 2.137.157.338-.187.355-.472.316-.725a14.085 14.085 0 01-.358-.35l-.013-.004c-.385-.13-.835-.28-1.287-.177z" fill="#3CC8C8"/></g><defs><linearGradient id="paint0_linear" x1="80.929" y1="60.592" x2="80.929" y2="212.281" gradientUnits="userSpaceOnUse"><stop stop-color="#A3F4F4"/><stop offset="1" stop-color="#A3F4F4" stop-opacity="0"/></linearGradient><linearGradient id="paint1_linear" x1="25.265" y1="80.264" x2="136.398" y2="71.453" gradientUnits="userSpaceOnUse"><stop stop-color="#76DDDD"/><stop offset=".227" stop-color="#DAFFFF"/><stop offset=".97" stop-color="#82D3D3"/></linearGradient><linearGradient id="paint2_linear" x1="74.474" y1="42.828" x2="106.743" y2="173.353" gradientUnits="userSpaceOnUse"><stop offset=".035" stop-color="#C2FFFB"/><stop offset="1" stop-color="#ABCCCC"/></linearGradient><linearGradient id="paint3_linear" x1="111.355" y1="78.836" x2="-23.408" y2="13.306" gradientUnits="userSpaceOnUse"><stop offset=".035" stop-color="#8BDFDF"/><stop offset="1" stop-color="#B4FFFF"/></linearGradient><linearGradient id="paint4_linear" x1="108.004" y1="38.029" x2="62.124" y2="74.068" gradientUnits="userSpaceOnUse"><stop stop-color="#ACDBDB"/><stop offset=".557" stop-color="#C0FFFF"/><stop offset="1" stop-color="#88CFCF"/></linearGradient><linearGradient id="paint5_linear" x1="121.776" y1="72.177" x2="58.711" y2="58.539" gradientUnits="userSpaceOnUse"><stop stop-color="#89D0D0"/><stop offset=".227" stop-color="#BFFBFB"/><stop offset=".97" stop-color="#AEDEDE"/></linearGradient><clipPath id="clip0"><path fill="#fff" transform="translate(39.368 39.27)" d="M0 0h81.33v47.319H0z"/></clipPath></defs></svg>