<svg width="303" height="211" fill="none" xmlns="http://www.w3.org/2000/svg"><mask id="path-1-inside-1" fill="#fff"><path fill-rule="evenodd" clip-rule="evenodd" d="M194.22 11.04c-23.854-13.771-62.53-13.771-86.385 0L17.891 62.965C4.834 70.503-1.076 80.605.161 90.464v30.643c-1.238 9.859 4.672 19.962 17.73 27.5l89.944 51.925c23.855 13.771 62.531 13.771 86.385 0l89.944-51.925c11.951-6.899 17.915-15.946 17.891-24.989h.089v-35.66h-.089c.026-9.043-5.938-18.092-17.891-24.993L194.22 11.04z"/></mask><path fill-rule="evenodd" clip-rule="evenodd" d="M194.22 11.04c-23.854-13.771-62.53-13.771-86.385 0L17.891 62.965C4.834 70.503-1.076 80.605.161 90.464v30.643c-1.238 9.859 4.672 19.962 17.73 27.5l89.944 51.925c23.855 13.771 62.531 13.771 86.385 0l89.944-51.925c11.951-6.899 17.915-15.946 17.891-24.989h.089v-35.66h-.089c.026-9.043-5.938-18.092-17.891-24.993L194.22 11.04z" fill="#fff"/><path d="M107.835 11.04l1 1.732-1-1.732zm86.385 0l-1 1.732 1-1.732zM17.891 62.965l-1-1.732 1 1.732zM.161 90.464h2v-.125l-.016-.124-1.984.249zm0 30.643l1.984.249.016-.124v-.125h-2zm17.73 27.5l-1 1.732 1-1.732zm89.944 51.925l1-1.732-1 1.732zm86.385 0l-1-1.732 1 1.732zm89.944-51.925l-1-1.732 1 1.732zm17.891-24.989v-2h-2.005l.005 2.006 2-.006zm.089 0v2h2v-2h-2zm0-35.66h2v-2h-2v2zm-.089 0l-2-.005-.006 2.006h2.006v-2zm-17.891-24.993l-1 1.732 1-1.732zM108.835 12.772c11.552-6.669 26.818-10.06 42.193-10.06 15.374 0 30.641 3.391 42.192 10.06l2-3.464c-12.303-7.103-28.302-10.596-44.192-10.596-15.891 0-31.89 3.493-44.193 10.596l2 3.464zM18.891 64.697l89.944-51.925-2-3.464-89.944 51.925 2 3.464zM2.145 90.215c-1.1-8.767 4.088-18.21 16.746-25.518l-2-3.464C3.435 69-3.198 79.763-1.824 90.713l3.97-.498zm-3.984.249v30.643h4V90.464h-4zm.015 30.394c-1.374 10.951 5.258 21.712 18.715 29.481l2-3.464c-12.66-7.308-17.846-16.751-16.746-25.519l-3.969-.498zm18.715 29.481l89.944 51.925 2-3.464-89.944-51.925-2 3.464zm89.944 51.925c12.303 7.103 28.302 10.596 44.193 10.596 15.89.001 31.889-3.493 44.192-10.596l-2-3.464c-11.552 6.669-26.818 10.06-42.192 10.06-15.375 0-30.641-3.391-42.193-10.06l-2 3.464zm88.385 0l89.944-51.925-2-3.464L193.22 198.8l2 3.464zm89.944-51.925c12.316-7.11 18.917-16.714 18.891-26.726l-4 .011c.021 8.073-5.305 16.562-16.891 23.251l2 3.464zm16.891-24.721h.089v-4h-.089v4zm2.089-2v-35.66h-4v35.66h4zm-2-37.66h-.089v4h.089v-4zm-18.98-21.26c11.588 6.689 16.914 15.18 16.891 23.255l4 .011c.029-10.013-6.573-19.62-18.891-26.731l-2 3.464zM193.22 12.771l89.944 51.925 2-3.464L195.22 9.308l-2 3.464z" fill="#CFCCE3" mask="url(#path-1-inside-1)"/><path d="M108.335 12.019c11.739-6.777 27.189-10.195 42.692-10.195 15.504 0 30.954 3.418 42.693 10.195l89.944 51.925c11.745 6.78 17.391 15.527 17.391 24.069 0 8.541-5.646 17.289-17.391 24.069l-89.944 51.925c-11.739 6.777-27.189 10.195-42.693 10.195-15.503 0-30.953-3.418-42.692-10.195l-89.944-51.925C6.646 105.302 1 96.554 1 88.012c0-8.54 5.646-17.288 17.39-24.068l89.945-51.925z" stroke="#CFCCE3" stroke-width="2"/></svg>