<svg width="160" height="212" fill="none" xmlns="http://www.w3.org/2000/svg"><path fill="url(#paint0_linear)" d="M24.706 66.543h111.645v144.916H24.706z"/><path d="M121.148 99.48c10.185-6.209 15.383-14.51 15.139-22.702 0 0-.209-13.987-.5-14.45-.536-8.656-5.886.38-17.317-6.124-22.573-12.544-58.163-12.66-78.977.03-10.629 6.479-16.299-3.728-15.763 4.927l.344 15.379c.535 8.655 6.665 16.467 17.654 23.24 22.572 12.544 58.163 12.66 79.42-.3z" fill="url(#paint1_linear)"/><path d="M120.853 84.002c21.256-12.958 19.766-33.862-2.806-46.405s-58.604-12.389-79.418.3C17.816 50.586 18.863 71.76 41.435 84.302c22.572 12.543 58.162 12.66 79.418-.3z" fill="url(#paint2_linear)"/><path d="M109.991 78.425c15.498-9.448 14.415-24.825-2.143-34.618-17-9.522-43.031-9.048-58.53.4C33.82 53.655 34.612 68.57 51.17 78.361c17 9.522 43.323 9.512 58.822.064z" fill="url(#paint3_linear)"/><path d="M107.181 47.492c-16.718-9.064-43.056-9.054-58.563.4-5.76 3.512-8.873 7.335-10.226 12.011.036-5.798 3.895-11.36 10.984-15.682 15.507-9.454 41.845-9.464 58.855.064 10.702 6.313 15.214 14.474 12.368 22.627.339-7.267-4.033-14.23-13.418-19.42z" fill="url(#paint4_linear)"/><path d="M41.455 87.033C30.58 81.443 24.79 70.513 23.81 62.107c2.02 7.13 7.822 16.122 17.224 21.323 22.916 13.04 58.295 12.692 79.601-.3 11.096-6.767 16.461-14.37 15.189-23.241 3.036 9.726-2.341 19.264-14.769 26.843-21.013 13.458-56.684 13.341-79.6.301z" fill="url(#paint5_linear)"/><g clip-path="url(#clip0)"><path d="M84.196 66.248l-3.341-3.376 1.863-2.305-1.963-1.985-.09-.024-1.834 2.27-5.61-5.669-5.859 3.409 7.316 7.4-1.443 1.785 2.025 2.045 1.441-1.784 4.311 4.361 15.592-9.071-2.675-2.72-9.733 5.664z" fill="#B6B6B6"/></g><defs><linearGradient id="paint0_linear" x1="80.528" y1="59.77" x2="80.528" y2="211.459" gradientUnits="userSpaceOnUse"><stop stop-color="#D3D4D5"/><stop offset="1" stop-color="#D3D4D5" stop-opacity="0"/></linearGradient><linearGradient id="paint1_linear" x1="24.864" y1="79.442" x2="135.997" y2="70.631" gradientUnits="userSpaceOnUse"><stop stop-color="#D3D4D5"/><stop offset=".227" stop-color="#E4E9EE"/><stop offset=".97" stop-color="#BEC1C4"/></linearGradient><linearGradient id="paint2_linear" x1="74.073" y1="42.006" x2="106.342" y2="172.531" gradientUnits="userSpaceOnUse"><stop offset=".035" stop-color="#EBEBEB"/><stop offset="1" stop-color="#FCFCFC"/></linearGradient><linearGradient id="paint3_linear" x1="110.954" y1="78.014" x2="-23.809" y2="12.484" gradientUnits="userSpaceOnUse"><stop offset=".035" stop-color="#D3D4D5"/><stop offset="1" stop-color="#D3D4D5"/></linearGradient><linearGradient id="paint4_linear" x1="107.603" y1="37.207" x2="61.722" y2="73.246" gradientUnits="userSpaceOnUse"><stop stop-color="#D3D4D5"/><stop offset=".557" stop-color="#FBFBFB"/><stop offset="1" stop-color="#BFBFBF"/></linearGradient><linearGradient id="paint5_linear" x1="121.375" y1="71.355" x2="58.31" y2="57.717" gradientUnits="userSpaceOnUse"><stop stop-color="#B7BEC5"/><stop offset=".227" stop-color="#E7E7E7"/><stop offset=".97" stop-color="#CACED1"/></linearGradient><clipPath id="clip0"><path fill="#fff" transform="translate(38.967 38.447)" d="M0 0h81.33v47.319H0z"/></clipPath></defs></svg>