<svg width="106" height="19" fill="none" xmlns="http://www.w3.org/2000/svg"><path d="M7.719 18H.489V1.09h7.16c1.538 0 2.765.383 3.68 1.148.913.766 1.37 1.79 1.37 3.07a3.64 3.64 0 01-.89 2.415c-.594.703-1.325 1.125-2.192 1.265v.094c1.156.11 2.098.543 2.824 1.3.727.759 1.09 1.696 1.09 2.813 0 1.492-.52 2.668-1.558 3.528C10.94 17.574 9.523 18 7.719 18zM3.512 3.445v4.77h2.906c1.055 0 1.867-.211 2.437-.633.57-.43.856-1.039.856-1.828 0-.734-.246-1.3-.738-1.7-.485-.406-1.176-.609-2.075-.609H3.512zm0 12.2h3.515c1.11 0 1.953-.227 2.532-.68.586-.453.879-1.113.879-1.98 0-.86-.301-1.512-.903-1.958-.594-.445-1.469-.668-2.625-.668H3.512v5.286zM22.906 18h-3.023V3.645H14.75V1.09h13.29v2.555h-5.134V18zm13.489.281c-2.422 0-4.34-.781-5.754-2.343-1.407-1.563-2.11-3.696-2.11-6.399 0-2.687.707-4.812 2.121-6.375C32.074 1.594 33.988.81 36.394.81c1.97 0 3.63.562 4.981 1.687 1.352 1.117 2.121 2.582 2.309 4.395h-2.977c-.195-1.063-.691-1.914-1.488-2.555-.79-.64-1.73-.961-2.825-.961-1.453 0-2.613.559-3.48 1.676-.86 1.11-1.289 2.605-1.289 4.488 0 1.899.43 3.402 1.29 4.512.858 1.11 2.023 1.664 3.491 1.664 1.117 0 2.055-.285 2.813-.856.765-.578 1.265-1.375 1.5-2.39h2.965c-.266 1.812-1.047 3.234-2.344 4.265-1.297 1.032-2.946 1.547-4.946 1.547zM58.578 18h-3.023V3.645h-5.133V1.09H63.71v2.555h-5.133V18zm5.625 0V5.191h2.8v2.227h.06c.203-.75.574-1.332 1.113-1.746.547-.414 1.199-.621 1.957-.621.36 0 .656.039.89.117v2.66c-.257-.117-.644-.176-1.16-.176-.851 0-1.523.262-2.015.785-.485.516-.727 1.227-.727 2.133V18h-2.918zM84.148 5.191V18h-2.8v-2.238h-.07c-.352.781-.88 1.379-1.583 1.793-.695.406-1.527.61-2.496.61-1.406 0-2.527-.427-3.363-1.278-.836-.852-1.254-2.012-1.254-3.48V5.19H75.5v7.63c0 .921.238 1.632.715 2.132.484.492 1.16.738 2.027.738.89 0 1.61-.289 2.156-.867.555-.578.833-1.34.833-2.285V5.191h2.917zm2.262 3.704c0-1.165.473-2.102 1.418-2.813.945-.71 2.188-1.066 3.727-1.066 1.476 0 2.683.363 3.62 1.09.938.718 1.423 1.66 1.454 2.824H93.91a1.679 1.679 0 00-.726-1.278c-.43-.32-.993-.48-1.688-.48-.68 0-1.227.144-1.64.433-.407.282-.61.657-.61 1.125 0 .711.621 1.211 1.863 1.5l2.25.516c1.29.297 2.204.711 2.743 1.242.546.532.82 1.27.82 2.215 0 1.188-.504 2.149-1.512 2.883s-2.316 1.102-3.926 1.102c-1.562 0-2.832-.36-3.808-1.079-.969-.726-1.5-1.687-1.594-2.882h2.871c.086.578.356 1.023.809 1.335.46.313 1.074.47 1.84.47.742 0 1.328-.137 1.757-.41.438-.282.657-.661.657-1.138 0-.375-.133-.671-.399-.89-.258-.227-.707-.414-1.348-.563l-2.32-.562c-2.36-.555-3.539-1.746-3.539-3.574zm13.278-6.563h2.917v2.86h2.426v2.261h-2.426v6.75c0 1.04.516 1.559 1.547 1.559.266 0 .555-.02.868-.059v2.238c-.352.079-.864.118-1.536.118-1.359 0-2.332-.266-2.918-.797-.585-.54-.879-1.426-.879-2.66V7.453h-1.746V5.191h1.746V2.332z" fill="#47404D"/></svg>