<svg width="160" height="212" fill="none" xmlns="http://www.w3.org/2000/svg"><path fill="url(#paint0_linear)" d="M24.706 66.543h111.645v144.916H24.706z"/><path d="M121.148 99.48c10.185-6.209 15.383-14.51 15.139-22.702 0 0-.209-13.987-.5-14.45-.536-8.656-5.886.38-17.317-6.124-22.573-12.544-58.163-12.66-78.977.03-10.629 6.479-16.299-3.728-15.763 4.927l.344 15.379c.535 8.655 6.665 16.467 17.654 23.24 22.572 12.544 58.163 12.66 79.42-.3z" fill="url(#paint1_linear)"/><path d="M120.853 84.002c21.256-12.958 19.766-33.862-2.806-46.405s-58.604-12.389-79.418.3C17.816 50.586 18.863 71.76 41.435 84.302c22.572 12.543 58.162 12.66 79.418-.3z" fill="url(#paint2_linear)"/><path d="M109.991 78.425c15.498-9.448 14.415-24.825-2.143-34.618-17-9.522-43.031-9.048-58.53.4C33.82 53.655 34.612 68.57 51.17 78.361c17 9.522 43.323 9.512 58.822.064z" fill="url(#paint3_linear)"/><path d="M107.181 47.492c-16.718-9.064-43.056-9.054-58.563.4-5.76 3.512-8.873 7.335-10.226 12.011.036-5.798 3.895-11.36 10.984-15.682 15.507-9.454 41.845-9.464 58.855.064 10.702 6.313 15.214 14.474 12.368 22.627.339-7.267-4.033-14.23-13.418-19.42z" fill="url(#paint4_linear)"/><path d="M41.455 87.033C30.58 81.443 24.79 70.513 23.81 62.107c2.02 7.13 7.822 16.122 17.224 21.323 22.916 13.04 58.295 12.692 79.601-.3 11.096-6.767 16.461-14.37 15.189-23.241 3.036 9.726-2.341 19.264-14.769 26.843-21.013 13.458-56.684 13.341-79.6.301z" fill="url(#paint5_linear)"/><g clip-path="url(#clip0)"><path d="M82.642 54.26c-1.925.625-3.066 1.752-3.066 2.94 0 .624.455 1.253 1.023 1.814.455.502.677 1.376-.908 1.814-1.132.374-2.612.125-3.289-.5-.677-.502-1.471-1.003-2.494-1.377-1.926-.624-4.198-.624-6.124 0-1.925.624-3.063 1.754-3.063 2.943s1.132 2.315 3.063 2.94c1.926.625 4.197.625 6.123 0 1.023-.313 1.817-.81 2.38-1.375.455-.438 1.703-1.002 3.289-.501 1.131.373 1.471 1.19.909 1.814-.569.564-.909 1.19-.909 1.814 0 1.19 1.131 2.315 3.066 2.94 1.926.624 4.197.624 6.123 0 1.926-.625 3.066-1.752 3.066-2.94s-1.134-2.315-3.066-2.941c-1.022-.314-2.157-.438-3.403-.438-1.023 0-2.38-.374-2.38-1.313 0-.752 1.023-1.313 2.38-1.313 1.132 0 2.38-.125 3.404-.438 1.925-.624 3.065-1.751 3.065-2.94 0-1.188-1.134-2.315-3.066-2.939-.908-.314-2.04-.438-3.062-.438-1.017-.003-2.158.124-3.06.435" fill="#78BBDC"/></g><defs><linearGradient id="paint0_linear" x1="80.528" y1="59.77" x2="80.528" y2="211.459" gradientUnits="userSpaceOnUse"><stop stop-color="#C0DCEA"/><stop offset="1" stop-color="#C0DCEA" stop-opacity="0"/></linearGradient><linearGradient id="paint1_linear" x1="24.864" y1="79.442" x2="135.997" y2="70.631" gradientUnits="userSpaceOnUse"><stop stop-color="#AED4E8"/><stop offset=".227" stop-color="#C7E8F9"/><stop offset=".97" stop-color="#95C6DE"/></linearGradient><linearGradient id="paint2_linear" x1="74.073" y1="42.006" x2="106.342" y2="172.531" gradientUnits="userSpaceOnUse"><stop offset=".035" stop-color="#D4EBF6"/><stop offset="1" stop-color="#9DD7F3"/></linearGradient><linearGradient id="paint3_linear" x1="110.954" y1="78.014" x2="-23.809" y2="12.484" gradientUnits="userSpaceOnUse"><stop offset=".035" stop-color="#B5DBEE"/><stop offset="1" stop-color="#93CDEA"/></linearGradient><linearGradient id="paint4_linear" x1="107.603" y1="37.207" x2="61.722" y2="73.246" gradientUnits="userSpaceOnUse"><stop stop-color="#C0DCEA"/><stop offset=".557" stop-color="#C7ECFF"/><stop offset="1" stop-color="#9CCDE6"/></linearGradient><linearGradient id="paint5_linear" x1="121.375" y1="71.355" x2="58.31" y2="57.717" gradientUnits="userSpaceOnUse"><stop stop-color="#A6CBDE"/><stop offset=".227" stop-color="#D8F2FF"/><stop offset=".97" stop-color="#9DCBE2"/></linearGradient><clipPath id="clip0"><path fill="#fff" transform="translate(38.967 38.447)" d="M0 0h81.33v47.319H0z"/></clipPath></defs></svg>