<svg width="160" height="212" viewBox="0 0 160 212" fill="none" xmlns="http://www.w3.org/2000/svg">
<path d="M24.8917 66.4518H136.383V171.169C136.383 193.26 118.474 211.169 96.383 211.169H64.8917C42.8003 211.169 24.8917 193.26 24.8917 171.169V66.4518Z" fill="url(#paint0_linear)"/>
<path d="M121.201 99.3442C131.373 93.1431 136.563 84.8531 136.319 76.6729C136.319 76.6729 136.111 62.7051 135.82 62.2418C135.285 53.5982 129.943 62.6212 118.527 56.1266C95.985 43.6006 60.4435 43.4847 39.6579 56.1564C29.044 62.627 23.3821 52.4337 23.917 61.0772L24.2601 76.4351C24.795 85.0786 30.916 92.8793 41.89 99.6436C64.4315 112.17 99.973 112.285 121.201 99.3442Z" fill="url(#paint1_linear)"/>
<path d="M120.907 83.8873C142.134 70.9465 140.646 50.0712 118.105 37.5457C95.5637 25.0201 59.581 25.1738 38.7959 37.8451C18.0109 50.5164 19.0571 71.6612 41.598 84.1868C64.1389 96.7123 99.6794 96.8282 120.907 83.8873Z" fill="url(#paint2_linear)"/>
<path d="M110.059 78.3174C125.536 68.8822 124.455 53.5261 107.92 43.7474C90.943 34.2382 64.9472 34.7114 49.4702 44.1466C33.9933 53.5819 34.7837 68.4747 51.3186 78.2534C68.2956 87.7626 94.5823 87.7527 110.059 78.3174Z" fill="url(#paint3_linear)"/>
<path d="M107.253 47.4271C90.5579 38.3757 64.2564 38.3856 48.7707 47.8267C43.0189 51.3333 39.91 55.1517 38.5592 59.8213C38.5944 54.0308 42.4486 48.476 49.5277 44.1601C65.0134 34.7191 91.3149 34.7092 108.301 44.2242C118.989 50.5282 123.495 58.6785 120.653 66.8208C120.991 59.5637 116.626 52.6103 107.253 47.4271Z" fill="url(#paint4_linear)"/>
<path d="M41.5847 99.5735C30.4395 93.5301 25.2098 85.4534 24.5224 77.527C24.5224 77.527 24.3048 76.4235 24.1649 75.2248C25.2954 82.881 30.7545 90.1283 41.1652 95.9775C64.0385 108.993 99.3521 108.645 120.618 95.6774C130.808 89.464 136.008 81.1575 135.764 72.961L136.183 76.557C136.427 84.7535 131.67 92.7899 121.037 99.2734C99.7717 112.241 64.1666 112.124 41.5847 99.5735Z" fill="url(#paint5_linear)"/>
<path d="M41.2824 86.0013C30.4234 80.4191 24.7317 72.3281 23.7524 63.9328C25.7699 71.0527 31.4733 77.2095 40.8627 82.4033C63.7471 95.4258 99.0779 95.0775 120.354 82.1031C131.435 75.3456 136.346 66.5698 135.075 57.71C138.108 67.4228 133.185 78.1327 120.774 85.7011C99.7892 99.14 64.1668 99.0238 41.2824 86.0013Z" fill="url(#paint6_linear)"/>
<path fill-rule="evenodd" clip-rule="evenodd" d="M84.746 54.5352C82.5812 52.8146 79.2752 53.1498 75.7128 54.1716L73.1249 51.6381L70.5027 52.5654L73.0224 55.0321C72.3338 55.2754 71.6374 55.5324 70.9458 55.7881L68.41 53.3048L65.7895 54.231L68.3756 56.7642C67.8149 56.9717 67.2638 57.1749 66.7205 57.3672L66.7121 57.3595L63.0952 58.637L64.7782 60.2838C64.7782 60.2838 66.6921 59.5777 66.6814 59.6101C67.7436 59.2349 68.4602 59.475 68.8798 59.7527L71.828 62.6389C71.9015 62.6132 71.9989 62.5812 72.1161 62.5517L71.8399 62.6494L75.9685 66.6934C76.1227 66.9064 76.2464 67.2893 75.5052 67.5523C75.5566 67.5579 73.599 68.2257 73.599 68.2257L74.9598 70.2519L78.3723 69.0454C78.758 68.9095 79.1421 68.777 79.522 68.646L79.5226 68.6458C79.7684 68.5611 80.0124 68.4769 80.254 68.3928L82.8729 70.9552L85.4922 70.0297L82.9031 67.494C83.6306 67.249 84.3299 67.0063 85.0089 66.7658L87.5854 69.2898L90.2071 68.3629L87.5953 65.8048C91.8512 64.098 94.2697 62.354 92.1655 59.785C90.4723 57.7152 88.0116 57.3943 85.1479 57.9249C86.2018 56.9316 86.3328 55.7935 84.7454 54.5356L84.746 54.5352ZM86.6733 61.311C88.4692 63.0683 83.7348 64.6891 81.5705 65.43C81.3767 65.4963 81.2035 65.5556 81.0574 65.6073L77.5904 62.2121C77.7691 62.149 77.9829 62.0693 78.2252 61.979C80.3936 61.171 84.8375 59.515 86.6739 61.3106L86.6733 61.311ZM76.4379 60.5088C78.2474 59.8927 82.1915 58.5497 80.5613 56.9526C78.8931 55.3189 75.1955 56.7058 73.3896 57.3832C73.1866 57.4593 73.0075 57.5265 72.8579 57.5794L76.0028 60.6586C76.1263 60.6149 76.2732 60.5648 76.4379 60.5088Z" fill="#E4A86B"/>
<defs>
<linearGradient id="paint0_linear" x1="80.6373" y1="59.6875" x2="80.6373" y2="211.169" gradientUnits="userSpaceOnUse">
<stop stop-color="#FFBB79"/>
<stop offset="1" stop-color="#FFF4C0" stop-opacity="0"/>
</linearGradient>
<linearGradient id="paint1_linear" x1="25.0495" y1="79.3334" x2="136.03" y2="70.5339" gradientUnits="userSpaceOnUse">
<stop stop-color="#FFBB96"/>
<stop offset="0.2273" stop-color="#FFFBC9"/>
<stop offset="0.5404" stop-color="#F9B673"/>
<stop offset="0.6391" stop-color="#F9B876"/>
<stop offset="0.7249" stop-color="#FABE81"/>
<stop offset="0.8057" stop-color="#FCC993"/>
<stop offset="0.8586" stop-color="#FED2A3"/>
<stop offset="0.9697" stop-color="#FFC28C"/>
</linearGradient>
<linearGradient id="paint2_linear" x1="74.1907" y1="41.9489" x2="106.415" y2="172.295" gradientUnits="userSpaceOnUse">
<stop offset="0.0353535" stop-color="#FFBA78"/>
<stop offset="0.395" stop-color="#FFC987"/>
<stop offset="1" stop-color="#FEECA8"/>
</linearGradient>
<linearGradient id="paint3_linear" x1="111.021" y1="77.9073" x2="-23.5569" y2="12.4666" gradientUnits="userSpaceOnUse">
<stop offset="0.0353535" stop-color="#FFBA78"/>
<stop offset="0.395" stop-color="#FFC987"/>
<stop offset="1" stop-color="#FEECA8"/>
</linearGradient>
<linearGradient id="paint4_linear" x1="107.675" y1="37.1565" x2="61.8573" y2="73.1458" gradientUnits="userSpaceOnUse">
<stop stop-color="#FFBB96"/>
<stop offset="0.2273" stop-color="#FFFBC9"/>
<stop offset="0.5404" stop-color="#F9B673"/>
<stop offset="0.6391" stop-color="#F9B876"/>
<stop offset="0.7249" stop-color="#FABE81"/>
<stop offset="0.8057" stop-color="#FCC993"/>
<stop offset="0.8586" stop-color="#FED2A3"/>
<stop offset="0.9697" stop-color="#FFC28C"/>
</linearGradient>
<linearGradient id="paint5_linear" x1="25.7558" y1="92.4222" x2="136.218" y2="83.6655" gradientUnits="userSpaceOnUse">
<stop stop-color="#FFBB96"/>
<stop offset="0.2273" stop-color="#FFFBC9"/>
<stop offset="0.5404" stop-color="#F9B673"/>
<stop offset="0.6391" stop-color="#F9B876"/>
<stop offset="0.7249" stop-color="#FABE81"/>
<stop offset="0.8057" stop-color="#FCC993"/>
<stop offset="0.8586" stop-color="#FED2A3"/>
<stop offset="0.9697" stop-color="#FFC28C"/>
</linearGradient>
<linearGradient id="paint6_linear" x1="121.093" y1="70.3444" x2="58.1149" y2="56.7255" gradientUnits="userSpaceOnUse">
<stop stop-color="#FFBB96"/>
<stop offset="0.2273" stop-color="#FFFBC9"/>
<stop offset="0.5404" stop-color="#F9B673"/>
<stop offset="0.6391" stop-color="#F9B876"/>
<stop offset="0.7249" stop-color="#FABE81"/>
<stop offset="0.8057" stop-color="#FCC993"/>
<stop offset="0.8586" stop-color="#FED2A3"/>
<stop offset="0.9697" stop-color="#FFC28C"/>
</linearGradient>
</defs>
</svg>
