<svg width="161" height="213" viewBox="0 0 161 213" fill="none" xmlns="http://www.w3.org/2000/svg">
<path d="M25.1071 67.3651H136.752V172.281C136.752 194.373 118.843 212.281 96.7517 212.281H65.1071C43.0158 212.281 25.1071 194.373 25.1071 172.281V67.3651Z" fill="url(#paint0_linear)"/>
<path d="M121.549 100.303C131.734 94.0931 136.932 85.7917 136.688 77.6002C136.688 77.6002 136.479 63.6132 136.188 63.1492C135.652 54.4938 130.303 63.5292 118.871 57.0256C96.2982 44.4825 60.7079 44.3664 39.8937 57.0555C29.2652 63.535 23.5956 53.3277 24.1312 61.9831L24.4748 77.362C25.0104 86.0174 31.1398 93.8289 42.1288 100.602C64.7013 113.146 100.292 113.262 121.549 100.303Z" fill="url(#paint1_linear)"/>
<path d="M121.254 84.8245C142.511 71.8658 141.02 50.9619 118.448 38.4191C95.8763 25.8763 59.8441 26.0302 39.0305 38.7189C18.2169 51.4076 19.2645 72.5815 41.8364 85.1243C64.4083 97.6671 99.9977 97.7831 121.254 84.8245Z" fill="url(#paint2_linear)"/>
<path d="M110.392 79.2468C125.89 69.7986 124.807 54.4215 108.25 44.6293C91.2493 35.107 65.2178 35.5809 49.7196 45.0291C34.2213 54.4773 35.0129 69.3905 51.5704 79.1827C68.5708 88.705 94.8936 88.6951 110.392 79.2468Z" fill="url(#paint3_linear)"/>
<path d="M107.582 48.3142C90.8637 39.2503 64.526 39.2603 49.0191 48.7142C43.2594 52.2257 40.1462 56.0493 38.7935 60.7253C38.8288 54.9269 42.6882 49.3645 49.7771 45.0427C65.2841 35.5887 91.6217 35.5787 108.632 45.1068C119.334 51.4195 123.846 59.581 121.001 67.7344C121.339 60.4674 116.967 53.5044 107.582 48.3142Z" fill="url(#paint4_linear)"/>
<path d="M41.8558 87.855C30.9818 82.2651 25.1914 71.3357 24.2107 62.9288C26.231 70.0585 32.0332 79.0512 41.4355 84.2521C64.3513 97.2925 99.7306 96.9436 121.036 83.9514C132.133 77.1846 137.498 69.5828 136.225 60.7108C139.261 70.4369 133.884 79.9755 121.456 87.5543C100.443 101.012 64.7716 100.895 41.8558 87.855Z" fill="url(#paint5_linear)"/>
<g clip-path="url(#clip0)">
<path fill-rule="evenodd" clip-rule="evenodd" d="M67.7918 53.5709C67.4463 52.9228 65.68 52.9223 65.3377 53.5646C64.9863 54.0446 65.6971 54.6319 66.5901 54.6187C67.4757 54.6311 68.1636 54.0468 67.7918 53.5709ZM60.0647 58.4415C59.6259 58.1341 58.6633 58.2211 58.4066 58.5829C57.9597 59.0344 58.8646 59.6399 59.6899 59.4297C60.3872 59.3144 60.6363 58.7198 60.0647 58.4415ZM75.7209 50.1197C74.9506 50.4704 73.7518 49.8993 74.1932 49.387C74.4532 48.9419 75.3971 48.9437 75.9629 49.1857C76.2745 49.4921 76.3108 49.9174 75.7209 50.1197ZM66.2809 59.1621C65.5322 58.5951 63.7855 58.7982 63.5203 59.4985C63.1877 60.1054 64.153 60.777 65.2391 60.6827C66.4728 60.6494 67.1127 59.6905 66.2809 59.1621ZM75.2292 53.2655C74.7039 52.5786 76.0057 51.7912 77.2089 52.0573C78.2237 52.2187 78.5705 52.9481 78.1334 53.458C77.4275 54.0596 75.6512 53.9877 75.2292 53.2655ZM70.6733 56.1953C70.0334 56.6257 69.9186 57.3282 70.6588 57.7506C71.2186 58.122 72.1316 58.1602 72.8842 58.0126C72.9379 57.9849 72.9934 57.9575 73.0492 57.9298C73.3561 57.7777 73.675 57.6198 73.786 57.3867C74.1516 56.8304 73.5907 56.1261 72.5816 55.9646C71.919 55.8075 71.2235 55.9831 70.6733 56.1953ZM60.1597 65.1017C60.414 64.469 62.0794 64.3847 62.5616 64.9608C63.0585 65.4127 62.4701 66.0564 61.5792 66.1017C60.6813 66.181 59.8474 65.6005 60.1597 65.1017ZM87.2294 50.2722C86.5713 49.8104 85.1199 50.0589 84.9972 50.6498C84.7753 51.2005 85.8059 51.7261 86.7107 51.5285C87.6166 51.398 87.9294 50.6351 87.2294 50.2722ZM76.2963 57.2456C76.8947 56.5008 78.4182 56.089 79.7994 56.2697C81.5397 56.4605 82.7388 57.5953 82.2362 58.5782C81.8025 59.6471 79.5495 60.2657 77.8492 59.7645C76.2265 59.3744 75.485 58.1359 76.2963 57.2456ZM74.8384 59.3834C73.26 59.0502 71.4426 59.623 70.898 60.5174C70.289 61.4542 71.255 62.6102 72.9168 62.9082C74.5535 63.2639 76.5085 62.6625 76.9601 61.6927C77.4774 60.7627 76.4771 59.6483 74.8384 59.3834ZM67.2855 64.8366C66.6871 64.3964 66.879 63.7717 67.4717 63.3738C68.2433 63.0224 69.3323 63.0167 70.1102 63.3822C70.7612 63.8135 70.909 64.5191 70.1746 64.9416C69.441 65.4497 67.9293 65.3897 67.2855 64.8366ZM85.6794 54.3229C84.7589 53.7447 82.9076 54.0003 82.5678 54.7623C82.104 55.523 83.4325 56.3733 84.781 56.1651C86.1972 56.0333 86.7501 54.88 85.6794 54.3229ZM73.1186 64.4193C73.8152 63.702 75.3775 63.3275 76.7463 63.5733C78.166 63.7963 79.2066 64.6482 79.0629 65.5013C79.0004 66.6662 76.7071 67.5474 74.834 67.0969C72.9893 66.7583 72.1301 65.3661 73.1186 64.4193ZM87.0672 57.4114C85.7001 57.2027 84.2333 57.6312 83.5665 58.3345C82.6132 59.3132 83.6042 60.7017 85.4926 60.9935C87.2198 61.3328 89.2179 60.6217 89.5186 59.587C89.8747 58.6395 88.7208 57.5979 87.0672 57.4114ZM68.0352 68.6812C68.5501 68.0111 70.4026 68.0141 70.8995 68.6961C71.4535 69.2584 70.6738 70.039 69.5654 70.0317C68.3979 70.0985 67.4641 69.279 68.0352 68.6812ZM91.6676 54.7654C90.9982 55.1997 91.1107 55.853 91.8321 56.2448C92.2957 56.3535 92.8033 56.4533 93.2992 56.3605C94.3877 56.1804 94.813 55.2773 93.932 54.8255C93.3496 54.4342 92.3296 54.4865 91.6676 54.7654ZM64.347 71.3031C64.6273 70.8829 65.6863 70.7774 66.1341 71.1712C66.744 71.5573 66.0582 72.2412 65.1843 72.1306C64.5127 72.0914 64.1238 71.6547 64.347 71.3031ZM97.3483 52.4892C96.7918 52.3282 96.043 52.5515 95.9438 52.9046C95.673 53.4306 96.9988 53.934 97.6449 53.4818C98.2288 53.2316 98.0404 52.6159 97.3483 52.4892ZM80.4156 65.4962C81.3882 64.5271 83.9174 64.3485 85.2978 65.1419C86.7703 65.8985 86.6031 67.4264 84.9325 68.0258C83.719 68.5343 81.8843 68.4199 80.8528 67.7804C79.831 67.1892 79.6452 66.1952 80.4156 65.4962ZM90.5721 62.0934C89.1897 61.2643 86.5982 61.4559 85.6373 62.4548C85.0428 63.0326 85.0315 63.8082 85.6688 64.3831C86.541 65.2948 88.8398 65.564 90.2465 64.9347C91.8387 64.3225 92.0036 62.844 90.5721 62.0934ZM76.409 68.8068C77.1758 68.1748 79.0885 68.277 79.6014 69.0126C80.2743 69.723 79.1669 70.6662 77.7902 70.5671C76.3398 70.5466 75.5101 69.4492 76.409 68.8068ZM94.8266 59.6269C93.9844 59.063 92.2484 59.233 91.7718 59.9171C91.0939 60.6845 92.4649 61.676 93.9025 61.4476C95.2923 61.3162 95.8568 60.1877 94.8266 59.6269ZM100.392 59.9498C99.4597 59.7837 99.24 58.9721 100.022 58.6481C100.332 58.4618 100.794 58.4682 101.211 58.474L101.284 58.475L101.353 58.5065C101.744 58.6834 102.192 58.8862 102.175 59.2017C102.287 59.7357 101.227 60.181 100.392 59.9498ZM77.0433 73.3159C76.445 72.8041 74.917 72.9629 74.712 73.5718C74.4228 74.0971 75.36 74.6671 76.2728 74.5278C77.1805 74.4312 77.622 73.7397 77.0433 73.3159ZM88.4425 67.1752C88.8966 66.4861 90.6606 66.2981 91.4943 66.8735C92.5621 67.4241 91.9687 68.5809 90.5631 68.6951C89.1541 68.9106 87.7747 67.9354 88.4425 67.1752ZM86.6947 70.9935C85.9694 70.4977 84.3927 70.6698 84.0658 71.2915C83.7597 71.6854 84.1071 72.1207 84.5903 72.4119C85.2096 72.5767 86.0259 72.6539 86.5614 72.3557C87.2898 72.0432 87.3635 71.358 86.6947 70.9935ZM95.6753 64.5499C95.9449 63.8718 97.6079 63.6528 98.3836 64.1831C99.2836 64.6853 98.6958 65.6844 97.4487 65.7361C96.3479 65.8483 95.3357 65.1675 95.6753 64.5499ZM102.117 65.2821C101.71 65.6483 101.922 66.2089 102.729 66.307C103.623 66.4459 104.376 65.7717 103.777 65.3521C103.376 65.0173 102.619 65.0895 102.117 65.2821ZM86.2948 75.3757C86.0353 75.0769 85.959 74.6742 86.5101 74.4705C87.2139 74.1158 88.4087 74.5842 88.1421 75.0979C87.9772 75.6035 86.8954 75.6719 86.2948 75.3757ZM95.258 70.0411C94.4711 70.1454 94.0163 70.7337 94.4625 71.1396C94.8105 71.6094 96.0607 71.6948 96.6 71.2968C96.9376 71.1103 96.955 70.8246 96.916 70.5718C96.7948 70.4565 96.6741 70.3407 96.5582 70.2223L96.5453 70.218C96.1596 70.0882 95.7105 69.9371 95.258 70.0411Z" fill="#3CC8C8"/>
</g>
<defs>
<linearGradient id="paint0_linear" x1="80.9294" y1="60.5915" x2="80.9294" y2="212.281" gradientUnits="userSpaceOnUse">
<stop stop-color="#A3F4F4"/>
<stop offset="1" stop-color="#A3F4F4" stop-opacity="0"/>
</linearGradient>
<linearGradient id="paint1_linear" x1="25.2652" y1="80.2644" x2="136.398" y2="71.4527" gradientUnits="userSpaceOnUse">
<stop stop-color="#76DDDD"/>
<stop offset="0.2273" stop-color="#DAFFFF"/>
<stop offset="0.9697" stop-color="#82D3D3"/>
</linearGradient>
<linearGradient id="paint2_linear" x1="74.4739" y1="42.8284" x2="106.743" y2="173.353" gradientUnits="userSpaceOnUse">
<stop offset="0.0353535" stop-color="#C2FFFB"/>
<stop offset="1" stop-color="#ABCCCC"/>
</linearGradient>
<linearGradient id="paint3_linear" x1="111.355" y1="78.8361" x2="-23.4079" y2="13.3055" gradientUnits="userSpaceOnUse">
<stop offset="0.0353535" stop-color="#8BDFDF"/>
<stop offset="1" stop-color="#B4FFFF"/>
</linearGradient>
<linearGradient id="paint4_linear" x1="108.004" y1="38.0294" x2="62.1237" y2="74.0681" gradientUnits="userSpaceOnUse">
<stop stop-color="#ACDBDB"/>
<stop offset="0.557292" stop-color="#C0FFFF"/>
<stop offset="1" stop-color="#88CFCF"/>
</linearGradient>
<linearGradient id="paint5_linear" x1="121.776" y1="72.1766" x2="58.7114" y2="58.539" gradientUnits="userSpaceOnUse">
<stop stop-color="#89D0D0"/>
<stop offset="0.2273" stop-color="#BFFBFB"/>
<stop offset="0.9697" stop-color="#AEDEDE"/>
</linearGradient>
<clipPath id="clip0">
<rect width="81.3304" height="47.3195" fill="white" transform="translate(39.3678 39.2692)"/>
</clipPath>
</defs>
</svg>
