<svg width="303" height="211" viewBox="0 0 303 211" fill="none" xmlns="http://www.w3.org/2000/svg">
<mask id="path-1-inside-1" fill="white">
<path fill-rule="evenodd" clip-rule="evenodd" d="M194.22 11.04C170.366 -2.73127 131.69 -2.73129 107.835 11.04L17.8912 62.965C4.83382 70.5031 -1.07629 80.6049 0.160905 90.4637L0.160905 121.107C-1.07698 130.966 4.83306 141.069 17.891 148.607L107.835 200.532C131.69 214.303 170.366 214.303 194.22 200.532L284.164 148.607C296.115 141.708 302.079 132.661 302.055 123.618H302.144V87.9588H302.055C302.081 78.9145 296.117 69.8656 284.164 62.965L194.22 11.04Z"/>
</mask>
<path fill-rule="evenodd" clip-rule="evenodd" d="M194.22 11.04C170.366 -2.73127 131.69 -2.73129 107.835 11.04L17.8912 62.965C4.83382 70.5031 -1.07629 80.6049 0.160905 90.4637L0.160905 121.107C-1.07698 130.966 4.83306 141.069 17.891 148.607L107.835 200.532C131.69 214.303 170.366 214.303 194.22 200.532L284.164 148.607C296.115 141.708 302.079 132.661 302.055 123.618H302.144V87.9588H302.055C302.081 78.9145 296.117 69.8656 284.164 62.965L194.22 11.04Z" fill="white"/>
<path d="M107.835 11.04L108.835 12.7721L107.835 11.04ZM194.22 11.04L193.22 12.7721L194.22 11.04ZM17.8912 62.965L16.8913 61.2329L17.8912 62.965ZM0.160905 90.4637H2.1609V90.3387L2.14534 90.2147L0.160905 90.4637ZM0.160905 121.107L2.14532 121.356L2.1609 121.232V121.107H0.160905ZM17.891 148.607L16.8911 150.339L17.891 148.607ZM107.835 200.532L108.835 198.8L107.835 200.532ZM194.22 200.532L193.22 198.8L194.22 200.532ZM284.164 148.607L283.164 146.875L284.164 148.607ZM302.055 123.618V121.618H300.05L300.055 123.624L302.055 123.618ZM302.144 123.618V125.618H304.144V123.618H302.144ZM302.144 87.9588H304.144V85.9588H302.144V87.9588ZM302.055 87.9588L300.055 87.9531L300.049 89.9588H302.055V87.9588ZM284.164 62.965L283.164 64.6971L284.164 62.965ZM108.835 12.7721C120.387 6.10327 135.653 2.71154 151.028 2.71155C166.402 2.71155 181.669 6.10329 193.22 12.7721L195.22 9.30796C182.917 2.20548 166.918 -1.28845 151.028 -1.28845C135.137 -1.28846 119.138 2.20547 106.835 9.30794L108.835 12.7721ZM18.8912 64.6971L108.835 12.7721L106.835 9.30794L16.8913 61.2329L18.8912 64.6971ZM2.14534 90.2147C1.04514 81.4475 6.23268 72.0049 18.8912 64.6971L16.8913 61.2329C3.43496 69.0013 -3.19772 79.7622 -1.82353 90.7127L2.14534 90.2147ZM-1.8391 90.4637L-1.8391 121.107H2.1609L2.1609 90.4637H-1.8391ZM-1.82351 120.858C-3.19847 131.809 3.43418 142.57 16.8911 150.339L18.891 146.875C6.23194 139.567 1.04451 130.124 2.14532 121.356L-1.82351 120.858ZM16.8911 150.339L106.835 202.264L108.835 198.8L18.891 146.875L16.8911 150.339ZM106.835 202.264C119.138 209.367 135.137 212.86 151.028 212.86C166.918 212.861 182.917 209.367 195.22 202.264L193.22 198.8C181.668 205.469 166.402 208.86 151.028 208.86C135.653 208.86 120.387 205.469 108.835 198.8L106.835 202.264ZM195.22 202.264L285.164 150.339L283.164 146.875L193.22 198.8L195.22 202.264ZM285.164 150.339C297.48 143.229 304.081 133.625 304.055 123.613L300.055 123.624C300.076 131.697 294.75 140.186 283.164 146.875L285.164 150.339ZM302.055 125.618H302.144V121.618H302.055V125.618ZM304.144 123.618V87.9588H300.144V123.618H304.144ZM302.144 85.9588H302.055V89.9588H302.144V85.9588ZM283.164 64.6971C294.752 71.3869 300.078 79.8783 300.055 87.9531L304.055 87.9645C304.084 77.9507 297.482 68.3443 285.164 61.233L283.164 64.6971ZM193.22 12.7721L283.164 64.6971L285.164 61.233L195.22 9.30796L193.22 12.7721Z" fill="#CFCCE3" mask="url(#path-1-inside-1)"/>
<path d="M108.335 12.0187C120.074 5.2415 135.524 1.82422 151.027 1.82422C166.531 1.82422 181.981 5.2415 193.72 12.0187L283.664 63.9437C295.409 70.7242 301.055 79.4713 301.055 88.0129C301.055 96.5544 295.409 105.302 283.664 112.082L193.72 164.007C181.981 170.784 166.531 174.202 151.027 174.202C135.524 174.202 120.074 170.784 108.335 164.007L18.3909 112.082C6.64577 105.302 1 96.5544 0.999999 88.0129C0.999998 79.4714 6.64577 70.7242 18.3909 63.9437L108.335 12.0187Z" stroke="#CFCCE3" stroke-width="2"/>
</svg>
