<svg width="160" height="212" viewBox="0 0 160 212" fill="none" xmlns="http://www.w3.org/2000/svg">
<rect x="24.706" y="66.5431" width="111.645" height="144.916" fill="url(#paint0_linear)"/>
<path d="M121.148 99.4806C131.333 93.2711 136.531 84.9696 136.287 76.7782C136.287 76.7782 136.078 62.7912 135.787 62.3272C135.251 53.6718 129.901 62.7072 118.47 56.2036C95.897 43.6604 60.3067 43.5444 39.4925 56.2335C28.864 62.713 23.1944 52.5057 23.73 61.1611L24.0736 76.54C24.6092 85.1954 30.7386 93.0069 41.7276 99.7804C64.3001 112.324 99.8905 112.44 121.148 99.4806Z" fill="url(#paint1_linear)"/>
<path d="M120.853 84.0024C142.109 71.0438 140.619 50.1399 118.047 37.5971C95.4752 25.0543 59.443 25.2082 38.6294 37.8969C17.8158 50.5856 18.8634 71.7595 41.4353 84.3023C64.0072 96.845 99.5966 96.9611 120.853 84.0024Z" fill="url(#paint2_linear)"/>
<path d="M109.991 78.4249C125.489 68.9767 124.406 53.5996 107.848 43.8074C90.8481 34.2851 64.8166 34.759 49.3183 44.2072C33.8201 53.6554 34.6117 68.5686 51.1692 78.3608C68.1695 87.8831 94.4923 87.8732 109.991 78.4249Z" fill="url(#paint3_linear)"/>
<path d="M107.181 47.4922C90.4625 38.4283 64.1249 38.4382 48.618 47.8922C42.8582 51.4037 39.7451 55.2273 38.3924 59.9033C38.4277 54.1048 42.2871 48.5425 49.376 44.2207C64.883 34.7667 91.2206 34.7567 108.231 44.2848C118.933 50.5975 123.445 58.759 120.599 66.9124C120.938 59.6453 116.566 52.6824 107.181 47.4922Z" fill="url(#paint4_linear)"/>
<path d="M41.4546 87.033C30.5807 81.4431 24.7903 70.5136 23.8096 62.1068C25.8299 69.2365 31.6321 78.2291 41.0344 83.4301C63.9502 96.4704 99.3295 96.1216 120.635 83.1294C131.731 76.3626 137.096 68.7608 135.824 59.8887C138.86 69.6149 133.483 79.1535 121.055 86.7323C100.042 100.19 64.3705 100.073 41.4546 87.033Z" fill="url(#paint5_linear)"/>
<g clip-path="url(#clip0)">
<path d="M84.196 66.2476L80.855 62.8722L82.7176 60.5667L80.7555 58.5821L80.6642 58.5577L78.8307 60.8272L73.2208 55.1595L67.3624 58.568L74.6778 65.9678L73.2353 67.7532L75.2597 69.7982L76.701 68.0142L81.0123 72.3753L96.6039 63.3038L93.9293 60.5846L84.196 66.2476Z" fill="#B6B6B6"/>
</g>
<defs>
<linearGradient id="paint0_linear" x1="80.5282" y1="59.7695" x2="80.5282" y2="211.459" gradientUnits="userSpaceOnUse">
<stop stop-color="#D3D4D5"/>
<stop offset="1" stop-color="#D3D4D5" stop-opacity="0"/>
</linearGradient>
<linearGradient id="paint1_linear" x1="24.864" y1="79.4424" x2="135.997" y2="70.6307" gradientUnits="userSpaceOnUse">
<stop stop-color="#D3D4D5"/>
<stop offset="0.2273" stop-color="#E4E9EE"/>
<stop offset="0.9697" stop-color="#BEC1C4"/>
</linearGradient>
<linearGradient id="paint2_linear" x1="74.0728" y1="42.0064" x2="106.342" y2="172.531" gradientUnits="userSpaceOnUse">
<stop offset="0.0353535" stop-color="#EBEBEB"/>
<stop offset="1" stop-color="#FCFCFC"/>
</linearGradient>
<linearGradient id="paint3_linear" x1="110.954" y1="78.0142" x2="-23.8091" y2="12.4836" gradientUnits="userSpaceOnUse">
<stop offset="0.0353535" stop-color="#D3D4D5"/>
<stop offset="1" stop-color="#D3D4D5"/>
</linearGradient>
<linearGradient id="paint4_linear" x1="107.603" y1="37.2074" x2="61.7225" y2="73.2461" gradientUnits="userSpaceOnUse">
<stop stop-color="#D3D4D5"/>
<stop offset="0.557292" stop-color="#FBFBFB"/>
<stop offset="1" stop-color="#BFBFBF"/>
</linearGradient>
<linearGradient id="paint5_linear" x1="121.375" y1="71.3546" x2="58.3102" y2="57.7169" gradientUnits="userSpaceOnUse">
<stop stop-color="#B7BEC5"/>
<stop offset="0.2273" stop-color="#E7E7E7"/>
<stop offset="0.9697" stop-color="#CACED1"/>
</linearGradient>
<clipPath id="clip0">
<rect width="81.3304" height="47.3195" fill="white" transform="translate(38.9666 38.4471)"/>
</clipPath>
</defs>
</svg>
