<svg width="106" height="19" viewBox="0 0 106 19" fill="none" xmlns="http://www.w3.org/2000/svg">
<path d="M7.71875 18H0.488281V1.08984H7.64844C9.1875 1.08984 10.4141 1.47266 11.3281 2.23828C12.2422 3.00391 12.6992 4.02734 12.6992 5.30859C12.6992 6.21484 12.4023 7.01953 11.8086 7.72266C11.2148 8.42578 10.4844 8.84766 9.61719 8.98828V9.08203C10.7734 9.19141 11.7148 9.625 12.4414 10.3828C13.168 11.1406 13.5312 12.0781 13.5312 13.1953C13.5312 14.6875 13.0117 15.8633 11.9727 16.7227C10.9414 17.5742 9.52344 18 7.71875 18ZM3.51172 3.44531V8.21484H6.41797C7.47266 8.21484 8.28516 8.00391 8.85547 7.58203C9.42578 7.15234 9.71094 6.54297 9.71094 5.75391C9.71094 5.01953 9.46484 4.45312 8.97266 4.05469C8.48828 3.64844 7.79688 3.44531 6.89844 3.44531H3.51172ZM3.51172 15.6445H7.02734C8.13672 15.6445 8.98047 15.418 9.55859 14.9648C10.1445 14.5117 10.4375 13.8516 10.4375 12.9844C10.4375 12.125 10.1367 11.4727 9.53516 11.0273C8.94141 10.582 8.06641 10.3594 6.91016 10.3594H3.51172V15.6445ZM22.9062 18H19.8828V3.64453H14.75V1.08984H28.0391V3.64453H22.9062V18ZM36.3945 18.2812C33.9727 18.2812 32.0547 17.5 30.6406 15.9375C29.2344 14.375 28.5312 12.2422 28.5312 9.53906C28.5312 6.85156 29.2383 4.72656 30.6523 3.16406C32.0742 1.59375 33.9883 0.808594 36.3945 0.808594C38.3633 0.808594 40.0234 1.37109 41.375 2.49609C42.7266 3.61328 43.4961 5.07812 43.6836 6.89062H40.707C40.5117 5.82812 40.0156 4.97656 39.2188 4.33594C38.4297 3.69531 37.4883 3.375 36.3945 3.375C34.9414 3.375 33.7812 3.93359 32.9141 5.05078C32.0547 6.16016 31.625 7.65625 31.625 9.53906C31.625 11.4375 32.0547 12.9414 32.9141 14.0508C33.7734 15.1602 34.9375 15.7148 36.4062 15.7148C37.5234 15.7148 38.4609 15.4297 39.2188 14.8594C39.9844 14.2812 40.4844 13.4844 40.7188 12.4688H43.6836C43.418 14.2812 42.6367 15.7031 41.3398 16.7344C40.043 17.7656 38.3945 18.2812 36.3945 18.2812ZM58.5781 18H55.5547V3.64453H50.4219V1.08984H63.7109V3.64453H58.5781V18ZM64.2031 18V5.19141H67.0039V7.41797H67.0625C67.2656 6.66797 67.6367 6.08594 68.1758 5.67188C68.7227 5.25781 69.375 5.05078 70.1328 5.05078C70.4922 5.05078 70.7891 5.08984 71.0234 5.16797V7.82812C70.7656 7.71094 70.3789 7.65234 69.8633 7.65234C69.0117 7.65234 68.3398 7.91406 67.8477 8.4375C67.3633 8.95312 67.1211 9.66406 67.1211 10.5703V18H64.2031ZM84.1484 5.19141V18H81.3477V15.7617H81.2773C80.9258 16.543 80.3984 17.1406 79.6953 17.5547C79 17.9609 78.168 18.1641 77.1992 18.1641C75.793 18.1641 74.6719 17.7383 73.8359 16.8867C73 16.0352 72.582 14.875 72.582 13.4062V5.19141H75.5V12.8203C75.5 13.7422 75.7383 14.4531 76.2148 14.9531C76.6992 15.4453 77.375 15.6914 78.2422 15.6914C79.1328 15.6914 79.8516 15.4023 80.3984 14.8242C80.9531 14.2461 81.2305 13.4844 81.2305 12.5391V5.19141H84.1484ZM86.4102 8.89453C86.4102 7.73047 86.8828 6.79297 87.8281 6.08203C88.7734 5.37109 90.0156 5.01562 91.5547 5.01562C93.0312 5.01562 94.2383 5.37891 95.1758 6.10547C96.1133 6.82422 96.5977 7.76562 96.6289 8.92969H93.9102C93.8633 8.39062 93.6211 7.96484 93.1836 7.65234C92.7539 7.33203 92.1914 7.17188 91.4961 7.17188C90.8164 7.17188 90.2695 7.31641 89.8555 7.60547C89.4492 7.88672 89.2461 8.26172 89.2461 8.73047C89.2461 9.44141 89.8672 9.94141 91.1094 10.2305L93.3594 10.7461C94.6484 11.043 95.5625 11.457 96.1016 11.9883C96.6484 12.5195 96.9219 13.2578 96.9219 14.2031C96.9219 15.3906 96.418 16.3516 95.4102 17.0859C94.4023 17.8203 93.0938 18.1875 91.4844 18.1875C89.9219 18.1875 88.6523 17.8281 87.6758 17.1094C86.707 16.3828 86.1758 15.4219 86.082 14.2266H88.9531C89.0391 14.8047 89.3086 15.25 89.7617 15.5625C90.2227 15.875 90.8359 16.0312 91.6016 16.0312C92.3438 16.0312 92.9297 15.8945 93.3594 15.6211C93.7969 15.3398 94.0156 14.9609 94.0156 14.4844C94.0156 14.1094 93.8828 13.8125 93.6172 13.5938C93.3594 13.3672 92.9102 13.1797 92.2695 13.0312L89.9492 12.4688C87.5898 11.9141 86.4102 10.7227 86.4102 8.89453ZM99.6875 2.33203H102.605V5.19141H105.031V7.45312H102.605V14.2031C102.605 15.2422 103.121 15.7617 104.152 15.7617C104.418 15.7617 104.707 15.7422 105.02 15.7031V17.9414C104.668 18.0195 104.156 18.0586 103.484 18.0586C102.125 18.0586 101.152 17.793 100.566 17.2617C99.9805 16.7227 99.6875 15.8359 99.6875 14.6016V7.45312H97.9414V5.19141H99.6875V2.33203Z" fill="#47404D"/>
</svg>
