<svg width="160" height="212" viewBox="0 0 160 212" fill="none" xmlns="http://www.w3.org/2000/svg">
<rect x="24.706" y="66.5431" width="111.645" height="144.916" fill="url(#paint0_linear)"/>
<path d="M121.148 99.4806C131.333 93.2711 136.531 84.9696 136.287 76.7782C136.287 76.7782 136.078 62.7912 135.787 62.3272C135.251 53.6718 129.901 62.7072 118.47 56.2036C95.897 43.6604 60.3067 43.5444 39.4925 56.2335C28.864 62.713 23.1944 52.5057 23.73 61.1611L24.0736 76.54C24.6092 85.1954 30.7386 93.0069 41.7276 99.7804C64.3001 112.324 99.8905 112.44 121.148 99.4806Z" fill="url(#paint1_linear)"/>
<path d="M120.853 84.0024C142.109 71.0438 140.619 50.1399 118.047 37.5971C95.4752 25.0543 59.443 25.2082 38.6294 37.8969C17.8158 50.5856 18.8634 71.7595 41.4353 84.3023C64.0072 96.845 99.5966 96.9611 120.853 84.0024Z" fill="url(#paint2_linear)"/>
<path d="M109.991 78.4249C125.489 68.9767 124.406 53.5996 107.848 43.8074C90.8481 34.2851 64.8166 34.759 49.3183 44.2072C33.8201 53.6554 34.6117 68.5686 51.1692 78.3608C68.1695 87.8831 94.4923 87.8732 109.991 78.4249Z" fill="url(#paint3_linear)"/>
<path d="M107.181 47.4922C90.4625 38.4283 64.1249 38.4382 48.618 47.8922C42.8582 51.4037 39.7451 55.2273 38.3924 59.9033C38.4277 54.1048 42.2871 48.5425 49.376 44.2207C64.883 34.7667 91.2206 34.7567 108.231 44.2848C118.933 50.5975 123.445 58.759 120.599 66.9124C120.938 59.6453 116.566 52.6824 107.181 47.4922Z" fill="url(#paint4_linear)"/>
<path d="M41.4546 87.033C30.5807 81.4431 24.7903 70.5136 23.8096 62.1068C25.8299 69.2365 31.6321 78.2291 41.0344 83.4301C63.9502 96.4704 99.3295 96.1216 120.635 83.1294C131.731 76.3626 137.096 68.7608 135.824 59.8887C138.86 69.6149 133.483 79.1535 121.055 86.7323C100.042 100.19 64.3705 100.073 41.4546 87.033Z" fill="url(#paint5_linear)"/>
<g clip-path="url(#clip0)">
<path d="M82.6422 54.2609C80.7165 54.885 79.5763 56.0119 79.5763 57.2003C79.5763 57.8244 80.0306 58.4533 80.5993 59.0144C81.0536 59.5156 81.2763 60.3903 79.6907 60.8285C78.5593 61.2019 77.0791 60.953 76.4021 60.3273C75.7249 59.8261 74.9306 59.3249 73.9076 58.9513C71.9819 58.3273 69.7103 58.3273 67.7844 58.9513C65.8586 59.5754 64.7213 60.7052 64.7213 61.8939C64.7213 63.0826 65.8527 64.2092 67.784 64.8349C69.7097 65.459 71.9813 65.459 73.9072 64.8349C74.9302 64.5213 75.7243 64.0233 76.2873 63.459C76.7416 63.0209 77.9903 62.4566 79.576 62.9578C80.7074 63.3313 81.0474 64.1478 80.4846 64.7719C79.916 65.3361 79.576 65.9619 79.576 66.586C79.576 67.776 80.7074 68.9012 82.6419 69.5254C84.5676 70.1495 86.8393 70.1495 88.7652 69.5254C90.691 68.9013 91.8314 67.7744 91.8314 66.586C91.8314 65.3976 90.697 64.2707 88.7655 63.6449C87.7425 63.3313 86.6081 63.2068 85.3623 63.2068C84.3393 63.2068 82.9822 62.8333 82.9822 61.8939C82.9822 61.1421 84.0052 60.581 85.3623 60.581C86.4938 60.581 87.7425 60.4565 88.7655 60.1429C90.6912 59.5188 91.8314 58.3919 91.8314 57.2035C91.8314 56.0152 90.697 54.8883 88.7655 54.2641C87.8569 53.9505 86.7253 53.826 85.7027 53.826C84.6856 53.8228 83.5454 53.9505 82.6427 54.2609" fill="#78BBDC"/>
</g>
<defs>
<linearGradient id="paint0_linear" x1="80.5282" y1="59.7695" x2="80.5282" y2="211.459" gradientUnits="userSpaceOnUse">
<stop stop-color="#C0DCEA"/>
<stop offset="1" stop-color="#C0DCEA" stop-opacity="0"/>
</linearGradient>
<linearGradient id="paint1_linear" x1="24.864" y1="79.4424" x2="135.997" y2="70.6307" gradientUnits="userSpaceOnUse">
<stop stop-color="#AED4E8"/>
<stop offset="0.2273" stop-color="#C7E8F9"/>
<stop offset="0.9697" stop-color="#95C6DE"/>
</linearGradient>
<linearGradient id="paint2_linear" x1="74.0728" y1="42.0064" x2="106.342" y2="172.531" gradientUnits="userSpaceOnUse">
<stop offset="0.0353535" stop-color="#D4EBF6"/>
<stop offset="1" stop-color="#9DD7F3"/>
</linearGradient>
<linearGradient id="paint3_linear" x1="110.954" y1="78.0142" x2="-23.8091" y2="12.4836" gradientUnits="userSpaceOnUse">
<stop offset="0.0353535" stop-color="#B5DBEE"/>
<stop offset="1" stop-color="#93CDEA"/>
</linearGradient>
<linearGradient id="paint4_linear" x1="107.603" y1="37.2074" x2="61.7225" y2="73.2461" gradientUnits="userSpaceOnUse">
<stop stop-color="#C0DCEA"/>
<stop offset="0.557292" stop-color="#C7ECFF"/>
<stop offset="1" stop-color="#9CCDE6"/>
</linearGradient>
<linearGradient id="paint5_linear" x1="121.375" y1="71.3546" x2="58.3102" y2="57.7169" gradientUnits="userSpaceOnUse">
<stop stop-color="#A6CBDE"/>
<stop offset="0.2273" stop-color="#D8F2FF"/>
<stop offset="0.9697" stop-color="#9DCBE2"/>
</linearGradient>
<clipPath id="clip0">
<rect width="81.3304" height="47.3195" fill="white" transform="translate(38.9666 38.4471)"/>
</clipPath>
</defs>
</svg>
