<svg xmlns="http://www.w3.org/2000/svg" xmlns:xlink="http://www.w3.org/1999/xlink"><symbol id="block"><rect x="9.9" y=".707" width="13" height="13" rx="1.5" transform="rotate(45 9.9 .707)"/></symbol><symbol id="burger"><path d="M1 1h14M1 7h14M1 13h14" stroke-width="2" stroke-linecap="round" stroke-linejoin="round"/></symbol><symbol id="disc-active"><path fill-rule="evenodd" clip-rule="evenodd" d="M0 12C0 5.373 5.373 0 12 0c6.624.008 11.992 5.376 12 12 0 6.627-5.373 12-12 12S0 18.627 0 12zm12.082 5.489L18.927 8.2a1 1 0 10-1.61-1.183l-6.227 8.451-4.076-3.261a1 1 0 00-1.25 1.562l4.888 3.908a1.011 1.011 0 001.43-.188z"/></symbol><symbol id="disc"><path fill-rule="evenodd" clip-rule="evenodd" d="M0 12C0 5.373 5.373 0 12 0c6.624.008 11.992 5.376 12 12 0 6.627-5.373 12-12 12S0 18.627 0 12zm12.082 5.489L18.927 8.2a1 1 0 10-1.61-1.183l-6.227 8.451-4.076-3.261a1 1 0 00-1.25 1.562l4.888 3.908a1.011 1.011 0 001.43-.188z"/></symbol><symbol id="ex"><rect x=".5" y=".5" width="13" height="13" rx="1.5"/><rect x="3.5" y="3.5" width="13" height="13" rx="1.5"/></symbol><symbol id="menu-close"><rect width="20" height="2" rx="1" transform="rotate(45 .536 1.778)"/><rect width="20" height="2" rx="1" transform="rotate(-45 17.278 6.571)"/></symbol><symbol id="menu-open"><rect width="20" height="2" rx="1"/><rect y="6" width="20" height="2" rx="1"/><rect x="10" y="12" width="10" height="2" rx="1"/></symbol><symbol id="success"><circle cx="30" cy="30" r="29" stroke-width="2"/><path d="M42.74 19.5L45 21.815 26.754 40.5 16.5 30l2.26-2.315 7.994 8.185L42.739 19.5z"/></symbol><symbol id="user" viewBox="0 0 64 64"><style>.st0{fill:#134563}</style><g id="Icon-User" transform="translate(278 278)"><path class="st0" d="M-246-222.1c-13.2 0-23.9-10.7-23.9-23.9s10.7-23.9 23.9-23.9 23.9 10.7 23.9 23.9-10.7 23.9-23.9 23.9zm0-45.2c-11.7 0-21.3 9.6-21.3 21.3 0 11.7 9.6 21.3 21.3 21.3 11.7 0 21.3-9.6 21.3-21.3 0-11.7-9.6-21.3-21.3-21.3z" id="Fill-57"/><path class="st0" d="M-260-228.7l-2.4-1.1c.7-1.7 2.9-2.6 5.4-3.7 2.4-1.1 5.4-2.4 5.4-4v-2.2c-.9-.7-2.3-2.3-2.5-4.6-.7-.7-1.8-2-1.8-3.6 0-1 .4-1.8.7-2.3-.2-1.1-.6-3.3-.6-5 0-5.5 3.8-9.1 9.8-9.1 1.7 0 3.8.5 4.9 1.7 2.7.5 4.9 3.7 4.9 7.4 0 2.4-.4 4.4-.7 5.3.3.5.6 1.2.6 2 0 1.9-.9 3.1-1.8 3.7-.2 2.3-1.5 3.8-2.3 4.5v2.2c0 1.4 2.5 2.3 4.8 3.2 2.7 1 5.5 2 6.4 4.3l-2.5.9c-.4-1.2-2.8-2-4.8-2.8-3.1-1.1-6.6-2.4-6.6-5.6v-3.6l.6-.4c.1 0 1.8-1.2 1.8-3.5v-.9l.8-.3c.1-.1.9-.5.9-1.7 0-.4-.3-.8-.4-.9l-.5-.6.2-.7s.7-2.2.7-5.2c0-2.5-1.4-4.8-2.9-4.8h-.8l-.4-.7c-.3-.5-1.5-1-3.1-1-4.5 0-7.2 2.4-7.2 6.5 0 1.9.7 5 .7 5l.2.7-.5.5s-.4.5-.4 1c0 .7.9 1.6 1.3 2l.5.4v.7c0 2.2 1.9 3.4 1.9 3.4l.6.4v3.6c0 3.3-3.7 5-7 6.4-1.4.8-3.5 1.8-3.9 2.5" id="Fill-58"/></g></symbol></svg>