<?xml version="1.0" standalone="no"?>
<!DOCTYPE svg PUBLIC "-//W3C//DTD SVG 20010904//EN"
 "http://www.w3.org/TR/2001/REC-SVG-20010904/DTD/svg10.dtd">
<svg version="1.0" xmlns="http://www.w3.org/2000/svg"
 width="213.000000pt" height="213.000000pt" viewBox="0 0 213.000000 213.000000"
 preserveAspectRatio="xMidYMid meet">
<metadata>
Created by potrace 1.11, written by Peter Selinger 2001-2013
</metadata>
<g transform="translate(0.000000,213.000000) scale(0.100000,-0.100000)"
fill="#000000" stroke="none">
<path d="M925 1834 c-246 -36 -420 -156 -426 -294 0 -19 2 -153 7 -297 5 -185
10 -260 18 -256 6 4 6 1 -1 -8 -16 -19 -13 -57 5 -64 10 -3 12 1 7 18 -5 19
-4 20 5 4 13 -21 5 -38 -15 -30 -23 8 -17 -10 10 -30 23 -17 25 -17 35 3 6 11
18 19 28 19 13 -1 14 -2 2 -6 -18 -5 -55 -53 -41 -53 5 0 13 5 16 10 11 18 27
11 20 -9 -3 -11 0 -23 6 -27 7 -4 9 -3 5 4 -3 6 -2 13 4 17 6 4 7 11 4 17 -4
6 -3 8 3 5 5 -3 17 7 27 24 17 28 17 29 -5 26 -16 -1 -22 4 -25 23 -3 18 -2
21 5 10 5 -8 7 -18 4 -24 -4 -5 1 -7 11 -3 31 12 38 -3 16 -39 -24 -43 -24
-39 0 -41 11 -1 18 2 15 7 -8 13 6 41 17 34 6 -4 8 2 3 17 -4 17 -3 20 3 10 7
-9 12 -10 16 -2 4 6 15 11 24 10 14 0 14 -2 2 -6 -20 -8 -63 -54 -56 -61 3 -2
12 1 20 7 8 7 19 10 24 7 11 -7 62 31 62 45 0 6 -12 1 -26 -10 -15 -12 -32
-21 -38 -21 -6 1 1 7 16 16 17 9 25 20 22 29 -4 8 -10 12 -15 9 -5 -3 -9 0 -9
5 0 16 18 13 28 -5 5 -9 13 -15 18 -14 17 3 14 -16 -5 -37 -17 -18 -18 -22 -5
-27 21 -8 26 -8 20 3 -3 4 0 15 7 24 9 13 16 14 27 6 12 -9 12 -10 -4 -5 -13
5 -17 2 -13 -8 7 -17 -17 -41 -32 -32 -13 8 -42 -4 -36 -15 3 -4 11 -6 18 -4
18 7 40 -45 26 -62 -7 -8 -8 -13 -1 -13 22 0 32 26 17 48 -14 19 -13 23 10 47
21 20 30 23 43 14 16 -10 16 -10 0 -5 -9 2 -21 -1 -28 -8 -8 -11 -3 -13 24
-13 30 1 35 4 32 22 -2 11 -1 14 1 7 3 -7 9 -10 14 -6 5 3 7 9 4 14 -3 4 2 11
10 14 13 5 14 2 3 -17 -16 -28 -19 -59 -4 -54 6 2 11 10 12 18 3 39 5 44 13
24 5 -11 4 -25 -1 -32 -7 -9 -7 -13 0 -13 6 0 14 5 17 10 4 7 14 5 28 -5 28
-20 32 -19 34 6 1 16 -1 18 -11 10 -9 -8 -19 -5 -35 10 -12 12 -20 23 -17 26
3 3 14 -5 25 -18 11 -13 20 -19 21 -14 0 6 -6 17 -12 24 -10 11 -10 13 0 7 6
-4 12 -2 12 3 0 6 5 11 11 11 8 0 8 -4 0 -14 -9 -11 -8 -15 5 -20 22 -9 24 -8
18 9 -3 8 1 24 10 37 9 12 16 17 16 11 0 -7 -4 -15 -10 -18 -13 -8 -13 -35 1
-35 5 0 8 4 5 9 -3 5 0 14 8 20 10 9 15 8 20 -4 3 -8 3 -21 0 -29 -3 -8 0 -17
7 -22 7 -4 10 -3 6 3 -4 6 0 16 8 23 13 11 12 16 -10 36 -15 13 -21 24 -15 24
6 0 8 4 5 10 -3 6 1 7 10 4 10 -4 15 -2 13 7 -2 7 5 15 15 17 9 2 17 -1 17 -7
0 -6 -7 -7 -17 -4 -10 4 -14 2 -9 -5 3 -6 -1 -15 -9 -19 -14 -8 -13 -11 4 -27
11 -10 17 -24 14 -32 -3 -8 0 -14 6 -14 6 0 11 5 11 11 0 8 5 8 15 -1 8 -7 12
-17 8 -24 -3 -6 0 -5 8 2 12 11 9 18 -20 43 -19 16 -32 31 -30 34 3 2 19 -9
36 -25 18 -17 34 -26 38 -21 3 5 -9 19 -26 31 -21 16 -27 26 -20 33 7 7 15 6
26 -3 8 -7 13 -15 11 -18 -3 -2 2 -11 10 -19 8 -8 11 -20 7 -26 -4 -7 0 -8 11
-4 10 4 15 3 11 -3 -8 -13 1 -13 26 1 11 5 17 14 14 20 -4 5 -1 9 4 9 14 0 14
-17 1 -25 -5 -3 -10 -12 -10 -18 0 -7 12 1 26 17 14 15 27 26 30 23 3 -3 -7
-16 -22 -31 -20 -18 -31 -22 -40 -15 -10 8 -12 5 -11 -10 2 -26 8 -26 40 -1
14 11 31 19 38 18 6 -2 14 3 17 11 3 8 0 11 -7 7 -7 -4 -9 -1 -5 8 5 12 11 10
30 -12 23 -24 25 -25 19 -6 -3 13 0 28 9 37 8 8 12 18 8 22 -4 5 -1 5 6 1 6
-4 18 -4 24 0 9 6 5 10 -12 15 -23 6 -23 7 -3 8 34 2 36 -15 4 -38 -20 -14
-28 -29 -27 -46 0 -14 6 -23 12 -21 6 2 17 -1 23 -7 8 -8 11 -8 11 1 0 7 -7
15 -15 18 -8 4 -15 14 -15 23 1 14 2 14 11 -1 5 -10 15 -18 21 -18 7 0 6 6 -2
15 -10 13 -9 19 5 35 10 11 20 18 23 16 2 -3 -3 -12 -12 -21 -9 -9 -14 -21
-11 -26 4 -5 17 3 30 18 l23 28 -26 17 c-15 10 -21 18 -14 18 19 0 27 -4 24
-13 -3 -11 31 -4 40 8 5 7 8 7 8 0 -1 -5 -18 -30 -40 -55 -44 -48 -51 -75 -21
-77 13 -1 18 3 14 13 -3 7 -10 11 -17 7 -6 -3 -7 -2 -3 2 4 5 33 9 64 10 39 0
58 4 61 14 3 8 0 11 -5 8 -5 -3 -10 0 -10 8 0 8 4 15 9 15 4 0 8 -5 8 -11 0
-5 5 -7 12 -3 6 4 8 3 4 -4 -3 -6 -2 -13 4 -17 6 -4 8 -11 4 -16 -3 -5 -1 -16
6 -24 8 -9 8 -15 0 -20 -6 -3 -8 -10 -5 -15 3 -5 1 -11 -4 -15 -6 -3 -8 -19
-6 -35 2 -17 -2 -30 -10 -34 -13 -5 -15 17 -3 30 4 3 4 12 1 20 -4 12 -8 11
-19 -3 -11 -15 -13 -15 -8 -2 9 28 -28 33 -48 7 -12 -15 -16 -17 -12 -5 4 10
1 17 -6 17 -6 0 -9 -4 -5 -9 3 -5 0 -13 -6 -17 -8 -4 -9 -3 -5 5 5 7 2 10 -6
9 -7 -2 -12 2 -11 8 1 6 -4 11 -12 11 -8 0 -12 -5 -9 -11 3 -6 -1 -3 -9 7 -10
12 -17 14 -22 8 -3 -6 -2 -11 3 -11 5 0 9 -7 9 -16 0 -14 -2 -14 -15 2 -10 13
-13 14 -9 3 4 -12 -3 -15 -33 -15 -29 0 -37 4 -33 16 3 9 2 11 -4 5 -9 -12
-28 -13 -39 -3 -14 14 -26 8 -20 -9 5 -15 4 -15 -9 1 -8 11 -15 15 -15 10 0
-6 -7 -11 -15 -11 -8 0 -12 4 -9 9 3 4 0 8 -5 8 -6 0 -11 -5 -11 -11 0 -5 -5
-7 -11 -3 -8 4 -7 9 2 16 11 7 9 8 -4 4 -10 -3 -22 -6 -25 -6 -4 0 0 -5 8 -10
12 -8 11 -10 -5 -7 -11 1 -26 6 -32 10 -8 5 -13 4 -13 -2 0 -6 5 -11 11 -11 8
0 8 -5 -1 -15 -7 -8 -17 -12 -22 -9 -7 4 -6 9 1 13 8 5 7 13 -2 26 -25 33 -47
-5 -25 -41 4 -6 1 -11 -7 -11 -8 0 -12 3 -10 7 3 4 -4 15 -15 25 -11 10 -20
14 -20 9 0 -5 -5 -2 -10 6 -8 11 -9 8 -6 -12 3 -15 0 -31 -6 -34 -7 -5 -9 0
-6 13 6 23 -18 28 -26 6 -4 -9 -1 -11 6 -7 7 4 8 3 4 -4 -11 -18 -29 -14 -22
4 4 10 2 13 -7 9 -6 -4 -3 0 7 9 10 8 23 13 27 10 5 -3 9 -1 9 5 0 5 -13 8
-30 6 -16 -2 -30 1 -30 6 0 6 -9 7 -20 4 -23 -7 -25 -2 -9 27 9 16 8 19 -2 16
-22 -7 -18 -53 4 -51 10 0 16 -2 13 -5 -3 -3 1 -13 9 -22 19 -21 11 -45 -16
-47 -12 -1 -19 1 -15 4 3 3 1 12 -5 20 -14 16 2 18 19 1 6 -6 15 -8 19 -5 4 4
-1 15 -11 25 -16 16 -18 16 -37 -7 -10 -13 -19 -18 -19 -13 0 6 5 14 10 17 6
4 8 11 4 16 -3 6 -12 5 -22 -3 -9 -7 -13 -8 -9 -2 4 7 -7 10 -33 9 -23 -1 -40
3 -40 9 0 6 -4 4 -9 -4 -6 -8 -7 -18 -4 -24 3 -5 2 -6 -4 -3 -11 7 -11 -29 0
-39 14 -14 7 -26 -8 -14 -8 6 -13 21 -12 32 3 28 -21 35 -25 7 -2 -12 -11 -23
-21 -25 -10 -1 -16 3 -14 9 3 7 9 11 14 10 5 -1 10 4 10 12 0 8 -4 12 -8 9 -4
-2 -10 0 -14 6 -4 6 7 10 27 10 25 0 29 3 18 10 -13 9 -13 10 0 10 13 0 13 1
0 10 -21 13 -30 12 -27 -2 1 -8 -9 -13 -28 -12 -37 2 -49 -15 -28 -38 9 -10
11 -18 6 -18 -22 0 -35 28 -24 49 7 13 8 22 1 26 -9 6 -14 -8 -11 -27 0 -5 -4
-8 -10 -8 -5 0 -8 -4 -4 -9 3 -5 0 -13 -6 -17 -8 -5 -9 -3 -4 6 6 9 4 11 -5 5
-9 -6 -11 -4 -5 5 5 8 4 11 -3 6 -6 -3 -13 -2 -17 4 -4 6 -11 8 -16 5 -5 -4
-9 -1 -9 4 0 6 4 11 8 11 5 0 9 7 9 15 0 9 -6 14 -14 11 -8 -3 -11 -1 -8 4 3
6 2 10 -3 10 -4 0 -8 -18 -8 -40 0 -22 4 -40 9 -40 4 0 5 -6 0 -12 -4 -7 -9
-22 -10 -33 -2 -14 -1 -16 6 -7 6 11 9 10 15 -3 9 -24 8 -25 -11 -18 -17 7
-17 6 0 -11 20 -20 22 -37 5 -32 -7 1 -9 1 -5 -2 4 -2 2 -11 -5 -20 -7 -10 2
-4 20 12 18 17 32 25 32 19 0 -5 -9 -18 -20 -28 -28 -25 -23 -60 9 -60 15 0
25 6 27 18 1 9 -2 15 -7 11 -5 -3 -9 0 -9 7 0 7 -3 9 -6 6 -4 -4 -1 -13 5 -21
10 -12 9 -15 -8 -13 -24 1 -26 9 -11 38 10 18 12 18 35 3 14 -9 22 -20 19 -25
-3 -5 0 -9 6 -9 6 0 9 8 6 18 -4 12 1 26 14 37 11 10 20 13 20 7 0 -6 -4 -14
-10 -17 -5 -3 -10 -12 -10 -18 0 -7 5 -4 11 5 6 11 16 15 27 11 10 -4 6 4 -10
20 -29 27 -36 47 -17 47 5 0 7 -4 4 -10 -3 -6 1 -7 10 -4 9 4 15 3 14 -2 -1
-5 -1 -15 0 -23 1 -11 4 -11 17 0 15 12 16 11 10 -9 -5 -14 -3 -22 4 -22 6 0
9 4 6 9 -3 5 1 11 9 15 8 3 17 1 20 -4 3 -4 -1 -10 -7 -13 -7 -2 7 -4 32 -4
25 0 39 2 32 4 -6 3 -10 9 -7 13 3 5 12 7 20 3 8 -3 15 0 15 7 0 6 -4 9 -8 6
-14 -9 -36 12 -39 39 -4 25 -3 25 15 8 12 -12 15 -21 8 -26 -7 -5 -4 -7 6 -3
24 7 45 -29 23 -41 -12 -7 -11 -11 8 -22 12 -8 19 -10 15 -6 -5 5 1 14 12 22
17 12 23 12 40 0 11 -8 17 -17 12 -22 -4 -4 3 -2 15 6 19 11 20 15 7 22 -14 8
-13 11 1 34 14 20 14 27 3 41 -11 14 -11 15 5 9 10 -4 21 -7 23 -7 3 0 2 -5
-1 -10 -3 -6 1 -13 9 -16 23 -9 20 -27 -3 -19 -23 7 -39 -14 -20 -26 8 -4 19
-3 28 4 8 7 24 12 35 12 15 0 20 5 18 19 -3 17 -2 18 13 6 15 -12 14 -15 -7
-35 -13 -12 -24 -18 -26 -14 -2 5 -8 9 -14 9 -20 0 23 -38 47 -43 14 -2 22 0
19 4 -3 5 -14 9 -26 9 -17 0 -18 2 -8 15 11 13 15 13 23 3 6 -9 7 -8 3 5 -4
12 -2 17 6 14 7 -2 12 -11 10 -20 -3 -19 14 -31 31 -20 22 14 40 12 68 -8 31
-22 39 -23 39 -8 0 5 -4 8 -8 5 -14 -8 -55 30 -47 44 7 11 10 9 16 -6 5 -13 7
-9 6 16 -2 23 -7 35 -17 35 -9 0 -14 -8 -13 -22 1 -11 -4 -27 -12 -33 -8 -7
-15 -9 -15 -6 0 4 -9 2 -20 -4 -25 -13 -27 4 -2 20 15 10 15 11 0 6 -10 -3
-22 4 -32 20 -9 13 -12 24 -6 24 7 0 8 6 0 19 -7 13 -7 22 0 26 9 5 12 -1 9
-21 0 -4 5 -11 13 -15 9 -6 10 -9 1 -9 -7 0 -10 -7 -6 -16 4 -12 9 -8 21 15 8
17 18 31 23 31 13 0 6 -23 -10 -36 -13 -10 -13 -14 1 -28 16 -15 17 -15 17 1
-1 38 9 58 27 61 16 3 17 1 4 -7 -13 -9 -13 -11 3 -12 30 -3 35 -4 43 -11 4
-5 3 -8 -2 -8 -5 0 -10 -9 -11 -20 -1 -16 1 -17 12 -7 7 6 11 15 8 20 -2 4 0
7 6 7 5 0 11 -3 14 -7 2 -5 2 -3 1 4 -2 6 4 14 12 17 17 6 17 5 4 -28 -5 -14
-15 -24 -22 -22 -7 1 -10 1 -5 -1 13 -8 -3 -22 -18 -16 -8 3 -15 -1 -15 -8 0
-7 3 -9 7 -6 3 4 12 2 19 -4 16 -13 35 -3 32 18 -2 9 3 18 10 20 8 3 10 -1 6
-14 -6 -16 -5 -16 9 2 15 20 16 20 23 1 7 -19 8 -19 14 -1 4 12 9 15 13 8 4
-6 0 -19 -9 -27 -8 -9 -10 -16 -4 -16 6 0 13 7 16 15 5 13 9 13 23 3 11 -8 10
-5 -3 10 -18 21 -18 23 -1 42 20 23 35 19 16 -4 -20 -23 -3 -41 19 -21 10 9
24 14 29 10 6 -3 23 3 37 14 30 24 45 27 40 9 -1 -7 -1 -10 1 -5 3 4 9 7 14 7
6 0 7 -4 4 -10 -3 -5 -1 -10 4 -10 6 0 11 -4 11 -10 0 -5 -6 -7 -14 -4 -7 3
-21 -2 -30 -11 -9 -9 -16 -12 -16 -6 0 15 -37 14 -43 -1 -4 -10 -6 -10 -6 0
-1 6 -6 12 -13 12 -6 0 -3 -9 7 -20 23 -25 47 -25 70 0 10 11 25 19 34 18 11
-2 16 5 16 21 0 13 5 26 10 28 16 5 12 -41 -4 -61 -12 -14 -12 -16 2 -11 8 4
18 2 22 -4 3 -6 11 -11 18 -11 6 0 2 6 -9 14 -15 12 -17 17 -6 27 10 11 12 9
12 -6 1 -18 2 -18 11 -3 5 10 16 15 24 12 8 -4 15 -1 15 5 0 6 -5 10 -11 8 -6
-1 -14 4 -16 11 -3 7 1 11 8 10 10 -2 13 28 14 129 1 126 1 132 -18 130 -11
-1 -22 4 -24 11 -3 6 0 12 7 12 6 0 8 -5 5 -10 -9 -15 11 -12 22 2 6 7 10 48
11 90 0 62 -3 80 -16 88 -15 9 -15 10 3 8 14 -2 19 2 16 12 -2 8 -3 20 -3 25
1 6 3 102 4 215 l2 206 -27 57 c-29 58 -80 110 -153 152 -44 26 -167 70 -224
80 -47 8 -257 14 -295 9z m-375 -718 c0 -3 -4 -8 -10 -11 -5 -3 -10 -1 -10 4
0 6 5 11 10 11 6 0 10 -2 10 -4z m40 -6 c0 -5 -5 -10 -11 -10 -5 0 -7 5 -4 10
3 6 8 10 11 10 2 0 4 -4 4 -10z m34 -70 c-6 -6 -10 -3 -10 10 0 13 4 16 10 10
7 -7 7 -13 0 -20z m76 15 c-12 -14 -43 -16 -56 -2 -4 3 5 4 19 1 14 -2 29 0
32 6 3 5 9 10 12 10 3 0 0 -7 -7 -15z m804 -15 c-6 -6 -10 -3 -10 10 0 13 4
16 10 10 7 -7 7 -13 0 -20z m-744 16 c0 -2 -8 -10 -17 -17 -16 -13 -17 -12 -4
4 13 16 21 21 21 13z m808 -17 c9 -12 9 -16 -1 -16 -7 0 -14 9 -14 20 -1 11
-1 18 0 16 2 -2 8 -11 15 -20z m-282 -24 c0 -19 -3 -35 -7 -35 -6 0 -5 52 0
68 4 10 7 -4 7 -33z m44 31 c0 -2 -8 -10 -17 -17 -16 -13 -17 -12 -4 4 13 16
21 21 21 13z m-560 -21 c-7 -8 -10 -21 -7 -28 3 -8 -1 -14 -8 -14 -8 0 -11 7
-7 16 6 19 22 41 29 41 3 0 0 -7 -7 -15z m76 -20 c-1 -8 -5 -17 -8 -21 -4 -3
-5 2 -4 13 2 10 -2 25 -8 33 -9 13 -9 13 6 2 9 -7 15 -19 14 -27z m80 10 c1
-8 -2 -15 -6 -15 -5 0 -8 9 -7 20 1 21 10 18 13 -5z m-258 -10 c-3 -3 -9 2
-12 12 -6 14 -5 15 5 6 7 -7 10 -15 7 -18z m146 9 c5 -14 4 -15 -9 -4 -17 14
-19 20 -6 20 5 0 12 -7 15 -16z m393 2 c0 -15 -21 -16 -34 -1 -4 4 -3 5 4 1 6
-3 14 -2 18 4 8 14 12 13 12 -4z m136 -1 c-3 -9 -8 -14 -10 -11 -3 3 -2 9 2
15 9 16 15 13 8 -4z m-769 -7 c-3 -4 -14 -6 -24 -5 -31 5 -32 13 -1 12 16 0
27 -3 25 -7z m70 -4 c3 -8 2 -12 -4 -9 -6 3 -10 10 -10 16 0 14 7 11 14 -7z
m499 2 c4 -10 1 -13 -8 -9 -8 3 -12 9 -9 14 7 12 11 11 17 -5z m351 2 c-3 -4
-9 -8 -15 -8 -5 0 -9 4 -9 8 0 5 7 9 15 9 8 0 12 -4 9 -9z m-109 -8 c4 -6 -1
-7 -11 -3 -13 5 -15 3 -9 -7 5 -9 4 -11 -4 -6 -6 4 -9 12 -6 17 8 12 22 12 30
-1z m-773 -23 c-2 -10 -5 -16 -6 -15 -1 2 -7 10 -13 18 -10 13 -8 16 6 16 13
0 17 -6 13 -19z m518 8 c0 -12 -19 -12 -23 0 -4 9 -1 12 9 8 7 -3 14 -7 14 -8z
m399 -7 c-11 -20 -25 -23 -34 -8 -4 6 1 7 12 3 15 -6 16 -4 6 8 -10 12 -8 15
7 15 15 0 16 -4 9 -18z m-857 -30 c-6 -6 -12 -6 -17 3 -6 8 -4 10 5 4 9 -5 10
-1 6 16 -6 21 -6 22 5 6 7 -13 8 -22 1 -29z m146 30 c-2 -6 -12 -12 -21 -14
-9 -1 -15 2 -11 7 3 5 10 7 15 4 5 -4 9 -1 9 4 0 6 3 11 6 11 3 0 4 -5 2 -12z
m87 2 c-3 -5 -14 -10 -23 -9 -14 0 -13 2 3 9 27 11 27 11 20 0z m-181 -11 c-2
-4 2 -10 8 -12 8 -4 7 -6 -3 -6 -9 -1 -19 5 -22 12 -3 8 1 14 9 14 7 0 11 -4
8 -8z m256 -9 c0 7 3 11 6 7 3 -3 3 -10 0 -16 -9 -13 -33 -4 -41 17 -5 13 -2
13 15 -3 14 -13 20 -14 20 -5z m198 12 c8 -6 2 -9 -18 -9 -20 0 -26 3 -18 9 7
4 15 8 18 8 3 0 11 -4 18 -8z m172 -3 c0 -3 -11 -6 -25 -6 -14 0 -25 3 -25 6
0 4 11 7 25 7 14 0 25 -3 25 -7z m40 1 c0 -5 -5 -10 -11 -10 -5 0 -7 5 -4 10
3 6 8 10 11 10 2 0 4 -4 4 -10z m75 0 c-3 -5 -12 -10 -18 -10 -7 0 -6 4 3 10
19 12 23 12 15 0z m-540 -10 c3 -5 1 -10 -4 -10 -6 0 -11 5 -11 10 0 6 2 10 4
10 3 0 8 -4 11 -10z m136 -13 c-10 -9 -11 -8 -5 6 3 10 9 15 12 12 3 -3 0 -11
-7 -18z m204 14 c3 -5 0 -13 -6 -17 -7 -4 -9 -3 -5 4 3 5 0 13 -6 15 -9 4 -10
6 -1 6 6 1 14 -3 18 -8z m160 -1 c-3 -5 -1 -10 6 -10 7 0 10 -3 6 -6 -9 -9
-28 6 -22 17 4 5 8 9 11 9 3 0 2 -4 -1 -10z m159 -6 c3 -8 2 -12 -4 -9 -6 3
-10 10 -10 16 0 14 7 11 14 -7z m-1014 -4 c0 -5 -4 -10 -10 -10 -5 0 -10 5
-10 10 0 6 5 10 10 10 6 0 10 -4 10 -10z m74 -6 c3 -8 2 -12 -4 -9 -6 3 -10
10 -10 16 0 14 7 11 14 -7z m126 6 c0 -5 -2 -10 -4 -10 -3 0 -8 5 -11 10 -3 6
-1 10 4 10 6 0 11 -4 11 -10z m56 1 c-4 -5 0 -11 6 -14 7 -2 9 -8 5 -13 -9
-10 -28 16 -21 28 3 4 7 8 10 8 3 0 3 -4 0 -9z m72 -16 c6 0 12 -3 12 -7 0 -5
0 -12 0 -18 0 -5 -5 -10 -11 -10 -8 0 -7 6 2 17 12 15 12 16 -4 10 -11 -4 -20
-1 -23 8 -4 8 -11 12 -17 8 -6 -4 -7 -1 -2 7 7 11 10 10 19 -1 6 -8 17 -14 24
-14z m183 2 c-10 -9 -11 -8 -5 6 3 10 9 15 12 12 3 -3 0 -11 -7 -18z m156 -13
c-4 -15 -5 -14 -6 4 -1 15 -5 21 -13 16 -7 -5 -8 -3 -3 5 10 18 28 -2 22 -25z
m250 21 c0 -8 -4 -12 -9 -9 -4 3 -8 9 -8 15 0 5 4 9 8 9 5 0 9 -7 9 -15z m79
-31 c-3 -9 -10 -12 -16 -9 -5 3 -10 2 -10 -4 0 -5 5 -12 10 -14 6 -3 5 -4 -2
-3 -7 2 -13 9 -13 17 0 8 6 13 14 11 10 -2 12 4 7 25 -5 23 -4 25 5 10 6 -10
8 -25 5 -33z m-972 21 c3 -8 1 -15 -4 -15 -6 0 -10 7 -10 15 0 8 2 15 4 15 2
0 6 -7 10 -15z m216 -29 c0 -6 -7 -1 -15 10 -8 10 -15 23 -15 28 0 6 7 1 15
-10 8 -10 15 -23 15 -28z m193 24 c-4 -14 -1 -20 8 -18 8 2 14 -3 14 -11 0 -8
-6 -15 -13 -17 -7 -1 -8 0 -2 3 5 2 10 9 10 14 0 6 -4 8 -9 4 -13 -7 -24 13
-17 30 8 22 15 18 9 -5z m171 5 c11 -8 16 -15 10 -15 -5 0 -18 7 -28 15 -11 8
-16 15 -10 15 5 0 18 -7 28 -15z m160 -1 c3 -8 2 -12 -4 -9 -6 3 -10 10 -10
16 0 14 7 11 14 -7z m71 6 c3 -6 -1 -7 -9 -4 -18 7 -21 14 -7 14 6 0 13 -4 16
-10z m-695 -11 c0 -4 -9 -7 -19 -6 -11 0 -18 4 -16 7 6 9 35 8 35 -1z m240 1
c0 -5 -4 -10 -10 -10 -5 0 -10 5 -10 10 0 6 5 10 10 10 6 0 10 -4 10 -10z m90
0 c0 -5 -2 -10 -4 -10 -3 0 -8 5 -11 10 -3 6 -1 10 4 10 6 0 11 -4 11 -10z
m256 -5 c4 -8 9 -13 13 -11 3 2 14 -2 24 -9 17 -13 17 -14 -3 -20 -12 -4 -24
-4 -27 -1 -4 3 1 6 11 6 9 0 14 5 11 10 -4 6 -11 8 -16 5 -5 -4 -12 1 -15 9
-3 9 -10 13 -15 10 -5 -3 -9 0 -9 5 0 16 20 13 26 -4z m72 -12 c0 -21 -2 -23
-10 -9 -5 9 -6 21 -3 26 10 16 13 12 13 -17z m172 23 c0 -3 -4 -8 -10 -11 -5
-3 -10 -1 -10 4 0 6 5 11 10 11 6 0 10 -2 10 -4z m-579 -33 c-12 -20 -14 -14
-5 12 4 9 9 14 11 11 3 -2 0 -13 -6 -23z m240 0 c-12 -20 -14 -14 -5 12 4 9 9
14 11 11 3 -2 0 -13 -6 -23z m404 17 c3 -5 1 -10 -4 -10 -6 0 -11 5 -11 10 0
6 2 10 4 10 3 0 8 -4 11 -10z m-1044 -27 c-12 -20 -14 -14 -5 12 4 9 9 14 11
11 3 -2 0 -13 -6 -23z m295 12 c-11 -8 -24 -15 -30 -15 -5 0 -1 7 10 15 10 8
24 14 29 14 6 0 1 -6 -9 -14z m434 -17 c0 -12 -10 -9 -26 6 -20 21 -17 28 6
14 11 -7 20 -16 20 -20z m-346 -18 c-6 -5 -24 21 -24 34 0 6 6 1 14 -10 8 -10
12 -21 10 -24z m-44 14 c0 -2 -7 -4 -15 -4 -8 0 -15 4 -15 10 0 5 7 7 15 4 8
-4 15 -8 15 -10z m88 4 c-2 -6 -10 -13 -16 -14 -7 -1 -8 0 -2 3 5 2 8 9 4 14
-3 5 0 9 6 9 7 0 10 -5 8 -12z m257 2 c13 -6 15 -9 5 -9 -8 0 -22 4 -30 9 -18
12 -2 12 25 0z m295 -36 c0 -6 -17 -11 -38 -11 -36 0 -38 1 -23 17 14 15 18
15 34 2 10 -9 17 -11 17 -4 0 6 -4 14 -10 17 -5 3 -10 11 -10 18 0 14 29 -24
30 -39z m-915 26 c-3 -5 -14 -10 -23 -9 -14 0 -13 2 3 9 27 11 27 11 20 0z
m235 -10 c0 -5 -2 -10 -4 -10 -3 0 -8 5 -11 10 -3 6 -1 10 4 10 6 0 11 -4 11
-10z m371 -7 c13 -15 12 -15 -8 -4 -24 12 -29 21 -14 21 5 0 15 -7 22 -17z
m129 13 c0 -3 -4 -8 -10 -11 -5 -3 -10 -1 -10 4 0 6 5 11 10 11 6 0 10 -2 10
-4z m-274 -161 c-9 -24 16 -36 36 -18 20 18 115 26 124 11 3 -5 10 -6 15 -2 5
3 6 11 2 17 -4 7 0 6 10 -2 9 -7 17 -10 17 -6 0 4 6 3 13 -2 17 -13 113 -10
110 4 -3 13 15 12 37 -2 26 -16 40 -14 55 8 13 19 28 18 31 -4 1 -5 2 -12 3
-15 0 -4 9 0 18 7 15 12 16 12 8 -1 -16 -25 -16 -50 -1 -50 8 0 18 5 21 10 12
19 23 10 21 -19 -1 -30 -16 -34 -57 -16 -10 3 -20 2 -24 -4 -4 -8 -12 -8 -25
-1 -11 6 -23 10 -27 9 -4 -1 -17 -1 -28 0 -16 1 -17 3 -5 11 9 6 17 5 22 -3 6
-9 8 -8 8 2 0 11 3 11 17 0 11 -10 14 -10 9 -1 -9 15 6 16 22 0 9 -9 12 -9 12
0 0 7 -5 12 -11 12 -5 0 -7 5 -4 10 4 6 10 8 15 5 5 -3 11 -1 14 4 3 5 -8 7
-24 6 -16 -1 -28 1 -25 5 2 3 -3 7 -11 7 -10 0 -11 -4 -4 -11 19 -19 10 -26
-15 -10 -14 9 -25 13 -25 9 0 -4 -7 -2 -15 5 -12 10 -15 10 -15 -1 0 -12 -2
-12 -9 0 -7 11 -10 9 -16 -9 -6 -20 -9 -21 -16 -7 -6 10 -18 14 -34 11 -15 -3
-25 0 -25 8 0 9 -3 9 -12 0 -9 -9 -15 -9 -27 1 -8 6 -12 7 -9 2 4 -6 -2 -16
-13 -23 -20 -13 -26 -3 -9 14 8 8 2 10 -17 9 -15 -1 -33 2 -40 7 -8 6 -11 4
-9 -9 2 -10 8 -18 14 -18 18 0 21 -9 7 -22 -11 -10 -15 -9 -19 5 -3 10 -15 18
-26 19 -13 1 -18 -2 -14 -9 5 -7 2 -8 -6 -3 -8 5 -18 1 -27 -10 -10 -14 -13
-15 -14 -4 -1 15 -5 31 -8 39 -9 20 -9 50 0 45 6 -4 8 -13 5 -20z m521 10 c0
-8 -4 -12 -9 -9 -5 3 -6 10 -3 15 9 13 12 11 12 -6z m-943 -6 c-2 -4 1 -11 7
-14 7 -5 3 -15 -11 -30 l-21 -22 25 2 c15 2 26 -1 26 -7 0 -6 -7 -7 -16 -4 -9
3 -12 2 -9 -5 4 -6 14 -8 22 -5 11 5 13 2 9 -10 -3 -8 -6 -18 -6 -20 0 -2 -5
-4 -11 -4 -5 0 -8 4 -4 9 8 13 -30 32 -49 25 -8 -3 -22 3 -33 16 -10 12 -26
26 -36 32 -16 8 -17 7 -8 -10 6 -11 7 -23 3 -27 -4 -5 -2 -6 3 -2 6 3 17 1 25
-4 11 -7 9 -8 -8 -6 -27 4 -58 42 -42 52 8 5 8 11 0 20 -9 10 -7 13 6 11 9 -1
23 -11 30 -21 11 -15 17 -16 26 -7 9 9 16 8 29 -4 24 -22 46 -8 25 15 -9 10
-14 20 -11 23 8 8 35 5 29 -3z m286 5 c0 -8 -19 -13 -24 -6 -3 5 1 9 9 9 8 0
15 -2 15 -3z m-114 -17 c4 -4 14 -1 23 6 14 10 14 10 3 -5 -15 -19 -8 -39 11
-34 7 1 8 1 3 -2 -4 -2 -3 -8 4 -12 8 -5 3 -7 -13 -7 -14 1 -23 5 -21 9 2 4 0
9 -6 13 -6 4 -8 10 -6 14 3 4 -1 8 -9 8 -18 0 -20 -13 -2 -21 6 -3 1 -3 -12 0
-17 4 -22 2 -19 -7 3 -8 13 -13 22 -11 9 2 15 -3 14 -10 -3 -15 58 -13 77 2
22 18 37 -13 19 -39 -13 -18 -14 -24 -2 -38 12 -15 11 -15 -9 -4 -15 7 -22 19
-20 34 1 14 -3 22 -13 22 -10 0 -14 -8 -13 -22 2 -15 -5 -27 -20 -34 -20 -11
-21 -11 -9 4 11 13 11 19 0 36 -7 12 -16 21 -20 21 -3 0 -14 8 -24 18 -10 9
-22 17 -28 17 -6 1 -9 7 -7 15 2 8 4 20 4 26 0 11 62 13 73 1z m210 -22 c1 -8
-2 -13 -7 -9 -5 3 -9 -1 -9 -8 0 -9 -2 -10 -8 -2 -5 8 -11 7 -22 -4 -13 -14
-12 -15 2 -10 9 4 19 1 21 -6 4 -9 -4 -13 -23 -12 -16 1 -28 4 -27 8 1 4 -7
13 -17 21 -18 13 -17 14 13 12 29 -2 43 7 47 28 1 4 2 10 3 14 2 11 25 -15 27
-32z m184 -1 c0 -8 -19 -13 -24 -6 -3 5 1 9 9 9 8 0 15 -2 15 -3z m84 -13 c3
-4 0 -13 -6 -21 -8 -12 -8 -11 -3 5 5 15 3 17 -6 8 -9 -9 -8 -16 4 -33 9 -13
17 -17 22 -11 3 6 0 11 -7 11 -10 0 -10 2 0 9 8 4 13 11 13 15 -3 18 0 23 13
23 12 0 12 -4 -1 -24 -10 -14 -11 -23 -4 -23 6 0 11 7 11 15 0 8 5 15 10 15
33 0 -27 -61 -65 -65 -29 -4 -43 12 -25 28 10 9 11 9 5 -2 -5 -9 -4 -12 3 -7
7 4 12 2 12 -5 0 -7 3 -9 7 -5 4 4 -4 17 -18 30 -21 19 -27 21 -38 9 -7 -8
-17 -13 -23 -11 -13 5 -6 23 9 23 6 0 15 4 19 8 4 4 13 2 21 -5 10 -8 12 -8 8
3 -6 15 30 24 39 10z m136 -2 c0 -11 -28 -19 -47 -13 -15 5 -16 4 -3 -5 8 -6
12 -11 8 -11 -3 0 -14 -3 -23 -6 -13 -6 -14 -3 -5 18 9 18 20 24 41 24 16 0
29 -3 29 -7z m-686 -48 c-2 -2 1 -10 8 -18 8 -10 8 -17 0 -25 -14 -14 -34 0
-28 20 9 27 -7 42 -24 24 -13 -14 -12 -15 3 -9 9 3 17 2 17 -2 0 -13 -29 -21
-36 -10 -3 5 -1 16 6 23 8 11 8 15 -1 18 -7 2 -9 10 -5 16 5 9 15 6 35 -10 16
-13 27 -25 25 -27z m286 23 c0 -8 -4 -12 -10 -9 -5 3 -10 10 -10 16 0 5 5 9
10 9 6 0 10 -7 10 -16z m388 -13 c10 -6 10 -10 -3 -21 -11 -9 -19 -9 -28 -2
-10 8 -16 6 -26 -9 -7 -12 -15 -18 -18 -15 -6 6 43 56 55 56 4 0 13 -4 20 -9z
m-817 -24 c8 -13 7 -22 -2 -33 -17 -20 -44 -13 -44 11 0 14 -6 19 -17 17 -20
-3 -25 14 -7 20 27 9 61 2 70 -15z m399 8 c7 -8 8 -15 2 -15 -5 0 -15 7 -22
15 -7 8 -8 15 -2 15 5 0 15 -7 22 -15z m-130 -5 c0 -5 -4 -10 -10 -10 -5 0
-10 5 -10 10 0 6 5 10 10 10 6 0 10 -4 10 -10z m280 0 c0 -5 -4 -10 -10 -10
-5 0 -10 5 -10 10 0 6 5 10 10 10 6 0 10 -4 10 -10z m410 -5 c14 -16 10 -18
-14 -9 -9 3 -16 10 -16 15 0 14 16 11 30 -6z m-610 -15 c0 -5 -2 -10 -4 -10
-3 0 -8 5 -11 10 -3 6 -1 10 4 10 6 0 11 -4 11 -10z m270 -30 c0 -5 -5 -10
-11 -10 -5 0 -7 5 -4 10 3 6 8 10 11 10 2 0 4 -4 4 -10z m215 0 c3 -5 -3 -10
-15 -10 -12 0 -18 5 -15 10 3 6 10 10 15 10 5 0 12 -4 15 -10z"/>
<path d="M1510 715 c-7 -8 -11 -15 -9 -16 37 -7 40 -7 30 5 -6 7 -8 16 -4 19
3 4 4 7 1 7 -3 0 -11 -7 -18 -15z"/>
<path d="M1425 710 c-3 -5 -5 -10 -3 -11 33 -8 38 -7 27 7 -14 17 -16 17 -24
4z"/>
<path d="M1129 692 c-13 -15 -12 -16 3 -4 13 10 17 10 21 0 4 -9 6 -9 6 -1 2
20 -16 24 -30 5z"/>
<path d="M1276 698 c3 -5 10 -6 15 -3 13 9 11 12 -6 12 -8 0 -12 -4 -9 -9z"/>
<path d="M1589 668 c-5 -18 -6 -38 -1 -34 7 8 12 36 6 36 -2 0 -4 -1 -5 -2z"/>
<path d="M1547 649 c7 -7 15 -10 18 -7 3 3 -2 9 -12 12 -14 6 -15 5 -6 -5z"/>
<path d="M640 716 c0 -2 8 -10 18 -17 15 -13 16 -12 3 4 -13 16 -21 21 -21 13z"/>
<path d="M594 679 c-5 -8 -3 -9 6 -4 10 6 12 4 7 -9 -4 -9 -3 -15 2 -11 5 3
12 -1 14 -7 4 -9 6 -7 6 3 1 23 -25 44 -35 28z"/>
<path d="M769 686 c-9 -19 -9 -19 4 -4 8 10 16 15 19 12 4 -3 8 -1 12 4 3 5
-2 9 -10 9 -8 0 -20 -10 -25 -21z"/>
<path d="M906 641 c-4 -5 -2 -12 3 -15 5 -4 12 -2 15 3 4 5 2 12 -3 15 -5 4
-12 2 -15 -3z"/>
<path d="M1023 695 c0 -8 4 -12 9 -9 5 3 6 10 3 15 -9 13 -12 11 -12 -6z"/>
<path d="M599 618 c-6 -12 -5 -46 2 -43 4 3 7 14 6 25 -1 18 -5 25 -8 18z"/>
<path d="M1145 900 c3 -5 11 -10 16 -10 6 0 7 5 4 10 -3 6 -11 10 -16 10 -6 0
-7 -4 -4 -10z"/>
<path d="M513 860 c1 -11 10 -23 20 -26 14 -4 16 -9 6 -20 -13 -16 2 -19 18
-3 8 8 15 5 25 -10 8 -12 17 -18 21 -15 3 3 10 -4 17 -15 6 -12 15 -19 21 -16
5 4 9 0 9 -7 0 -9 3 -9 10 2 5 8 10 20 10 25 0 6 -5 3 -10 -5 -8 -13 -10 -12
-10 3 0 9 -3 17 -7 16 -34 -5 -71 30 -56 54 4 7 -1 6 -11 -2 -13 -11 -20 -11
-28 -3 -7 7 -9 12 -4 12 4 0 1 7 -8 15 -20 20 -25 19 -23 -5z"/>
<path d="M1053 851 c1 -4 -9 -18 -23 -31 -18 -16 -20 -20 -7 -16 10 3 16 2 13
-3 -3 -5 1 -12 10 -15 12 -5 14 -1 9 17 -5 20 -5 20 9 -3 8 -14 18 -24 22 -22
5 2 10 -2 12 -10 2 -9 0 -8 -7 2 -6 8 -11 10 -11 4 0 -6 7 -17 15 -24 8 -7 15
-9 15 -5 0 4 7 2 15 -5 12 -10 16 -9 21 3 3 10 14 14 32 11 66 -12 77 -10 74
11 -2 16 -1 17 7 5 8 -12 13 -12 23 -2 9 9 9 12 -2 13 -8 0 -28 2 -44 4 -25 3
-26 2 -11 -9 14 -10 15 -15 5 -21 -9 -6 -11 -4 -5 5 6 9 1 10 -16 5 -18 -5
-20 -4 -9 4 12 8 10 10 -8 8 -12 0 -22 -6 -22 -12 0 -5 -4 -4 -9 3 -7 11 -9
11 -14 -2 -4 -9 -13 -13 -22 -10 -8 3 -13 10 -10 14 3 5 1 11 -5 15 -14 9 -1
28 15 21 7 -2 16 1 18 8 3 8 -4 13 -23 13 -19 0 -26 -5 -23 -14 3 -7 -1 -13
-10 -13 -18 0 -29 24 -21 45 4 8 1 15 -5 15 -6 0 -10 -4 -8 -9z"/>
<path d="M685 834 c-10 -8 -31 -11 -47 -9 -26 5 -28 4 -18 -14 6 -12 18 -18
29 -16 21 4 34 -16 25 -40 -4 -8 -1 -15 5 -15 6 0 10 3 10 8 -4 26 2 30 32 15
17 -9 27 -18 23 -22 -5 -3 -10 -13 -12 -21 -2 -8 8 -1 22 15 30 35 31 44 11
51 -8 4 -12 10 -9 15 3 5 -2 6 -10 3 -9 -3 -14 -11 -13 -16 1 -6 -5 -13 -13
-15 -13 -4 -13 -3 0 7 13 10 13 11 -2 6 -10 -3 -18 -1 -18 5 0 6 -5 7 -10 4
-6 -4 -5 4 1 19 7 14 16 23 20 20 5 -3 16 -1 25 4 14 8 13 10 -8 10 -13 0 -33
-7 -43 -14z m-31 -22 c3 -5 -1 -9 -9 -9 -8 0 -12 4 -9 9 3 4 7 8 9 8 2 0 6 -4
9 -8z m116 -40 c0 -13 -12 -22 -22 -16 -10 6 -1 24 13 24 5 0 9 -4 9 -8z"/>
<path d="M1175 820 c-6 -19 -22 -25 -53 -21 -10 2 -10 -2 0 -18 11 -18 13 -18
25 -3 7 9 13 13 13 7 0 -5 7 1 16 15 14 23 14 23 9 2 -6 -21 -5 -21 19 -11 27
13 26 23 -4 39 -15 8 -20 6 -25 -10z"/>
<path d="M510 811 c0 -11 12 -23 31 -31 22 -10 27 -15 17 -21 -10 -7 -10 -9 2
-9 12 0 12 -2 1 -9 -9 -6 -10 -11 -2 -15 6 -4 11 -1 11 6 0 10 2 11 8 0 6 -9
12 -5 21 14 6 15 9 29 6 32 -3 3 -5 -1 -5 -9 -1 -8 -8 -1 -16 14 -12 23 -18
26 -29 17 -18 -15 -36 -4 -28 15 3 8 0 15 -6 15 -6 0 -11 -8 -11 -19z m65 -31
c3 -6 -1 -7 -9 -4 -18 7 -21 14 -7 14 6 0 13 -4 16 -10z m15 -30 c0 -5 -2 -10
-4 -10 -3 0 -8 5 -11 10 -3 6 -1 10 4 10 6 0 11 -4 11 -10z"/>
<path d="M1320 811 c-5 -11 -10 -22 -10 -24 0 -10 32 0 40 12 5 9 10 10 14 2
4 -6 1 -11 -6 -11 -7 -1 -2 -7 12 -16 21 -12 22 -14 5 -12 -11 2 -23 8 -27 13
-5 7 -8 7 -8 0 0 -35 35 -42 56 -10 17 26 12 47 -10 39 -7 -3 -19 2 -26 11
-17 20 -27 19 -40 -4z m75 -21 c-3 -5 -12 -10 -18 -10 -7 0 -6 4 3 10 19 12
23 12 15 0z"/>
<path d="M1565 820 c-3 -5 -4 -13 -2 -17 2 -5 -4 -16 -15 -25 -10 -10 -18 -14
-18 -9 0 6 5 13 10 16 6 3 10 14 10 23 0 11 -8 5 -22 -16 -14 -23 -24 -30 -31
-23 -7 7 -15 5 -24 -7 -13 -15 -13 -14 -3 6 10 20 14 21 28 10 13 -11 15 -11
9 4 -3 10 -1 20 5 24 7 5 8 2 3 -6 -5 -9 -4 -11 4 -6 17 11 5 23 -21 21 -13
-1 -23 -8 -23 -16 0 -9 -11 -14 -29 -14 -27 0 -51 -23 -27 -26 6 -1 17 -2 24
-3 6 -1 11 -8 9 -16 -3 -11 0 -11 12 -1 8 7 20 10 25 7 5 -4 12 -2 16 3 6 11
45 11 45 0 0 -4 8 -6 18 -5 9 2 17 7 17 12 0 5 4 15 8 22 5 7 2 14 -8 18 -12
5 -13 9 -4 20 8 9 8 14 1 14 -6 0 -14 -4 -17 -10z m-109 -52 c3 -4 -1 -5 -10
-4 -8 1 -18 5 -22 8 -3 4 1 5 10 4 8 -1 18 -5 22 -8z m117 -2 c4 -10 1 -13 -9
-9 -7 3 -14 9 -14 14 0 14 17 10 23 -5z"/>
<path d="M700 810 c0 -5 7 -10 15 -10 8 0 15 5 15 10 0 6 -7 10 -15 10 -8 0
-15 -4 -15 -10z"/>
<path d="M795 812 c-2 -3 2 -14 10 -25 13 -18 13 -23 0 -37 -13 -15 -11 -16
23 -15 20 1 44 -3 52 -9 12 -9 13 -8 3 4 -9 12 -11 55 -3 55 1 0 3 7 5 16 4
22 -20 20 -35 -4 -10 -17 -10 -19 2 -14 8 3 15 -1 15 -8 0 -8 -7 -11 -16 -7
-13 5 -14 3 -4 -9 10 -13 10 -16 -2 -16 -8 0 -12 4 -9 8 2 4 0 11 -6 14 -8 5
-8 11 -1 19 6 7 7 17 3 21 -4 5 0 5 8 0 8 -5 12 -4 7 0 -8 10 -44 14 -52 7z"/>
<path d="M1281 806 c-9 -11 -8 -15 5 -20 16 -6 16 -8 0 -25 -20 -22 -10 -34
15 -20 14 7 21 6 24 -3 6 -16 45 -22 45 -7 0 5 -3 8 -7 8 -17 -3 -33 1 -32 9
3 20 -2 32 -13 30 -8 -2 -12 6 -11 20 3 25 -9 29 -26 8z m29 -40 c0 -2 -8 -10
-17 -17 -16 -13 -17 -12 -4 4 13 16 21 21 21 13z"/>
<path d="M936 788 c-9 -13 -14 -18 -11 -11 3 6 0 15 -7 19 -7 4 -10 4 -6 -1 4
-4 3 -15 -2 -25 -7 -13 -5 -16 10 -15 11 1 23 5 27 10 5 4 1 5 -7 0 -8 -5 -12
-4 -8 0 12 12 58 15 58 4 0 -6 -4 -8 -8 -5 -12 7 -38 -12 -29 -21 5 -4 12 -1
16 6 6 9 11 10 15 2 4 -6 11 -9 16 -6 4 2 19 -5 34 -16 17 -14 24 -16 20 -6
-3 8 -1 18 5 22 15 9 14 31 -1 33 -7 1 -27 3 -45 5 -18 2 -38 9 -46 15 -11 10
-18 8 -31 -10z m109 -21 c13 -10 15 -16 6 -21 -12 -8 -41 10 -41 25 0 13 13
11 35 -4z"/>
<path d="M1027 759 c7 -7 15 -10 18 -7 3 3 -2 9 -12 12 -14 6 -15 5 -6 -5z"/>
<path d="M1455 600 c-3 -5 -1 -10 4 -10 6 0 11 5 11 10 0 6 -2 10 -4 10 -3 0
-8 -4 -11 -10z"/>
<path d="M1268 549 c-10 -10 -15 -19 -10 -20 4 0 18 -2 32 -5 21 -3 22 -2 8 6
-9 6 -15 17 -12 25 8 19 3 18 -18 -6z"/>
<path d="M1593 552 c0 -11 5 -18 9 -16 4 3 8 0 8 -7 0 -7 3 -10 6 -6 3 3 -1
16 -9 28 -16 22 -16 22 -14 1z"/>
<path d="M858 539 c-22 -23 -11 -25 14 -2 16 14 18 14 18 0 0 -8 -6 -17 -12
-20 -7 -2 -9 -8 -5 -13 10 -10 28 16 24 35 -3 22 -20 21 -39 0z"/>
<path d="M970 549 c0 -5 -4 -7 -10 -4 -5 3 -10 1 -10 -5 0 -6 -4 -8 -10 -5 -5
3 -10 2 -10 -4 0 -16 37 -8 49 11 7 11 7 18 1 18 -5 0 -10 -5 -10 -11z"/>
<path d="M1381 543 c12 -15 12 -16 -4 -10 -10 4 -16 3 -12 -2 5 -9 45 -11 45
-3 0 6 -28 32 -36 32 -3 0 0 -8 7 -17z"/>
<path d="M1490 552 c0 -5 -10 -14 -22 -20 -23 -10 -23 -10 -2 -9 22 1 54 37
34 37 -5 0 -10 -4 -10 -8z"/>
<path d="M650 541 c0 -10 19 -25 25 -20 1 2 -3 10 -11 17 -8 7 -14 8 -14 3z"/>
<path d="M682 539 c7 -5 13 -14 13 -21 0 -7 11 -13 25 -13 19 0 25 6 27 25 2
21 1 22 -5 5 -4 -11 -15 -21 -24 -23 -22 -3 -23 2 -4 21 12 12 10 14 -15 14
-19 0 -25 -3 -17 -8z"/>
<path d="M772 528 c4 -29 50 -33 54 -5 1 9 -2 15 -7 11 -5 -3 -9 0 -9 7 0 7
-3 9 -6 6 -4 -4 -1 -13 5 -21 10 -12 9 -15 -9 -13 -15 1 -20 6 -17 19 3 10 1
18 -5 18 -5 0 -8 -10 -6 -22z"/>
<path d="M1110 528 c0 -11 12 -10 30 2 12 7 10 9 -8 7 -12 0 -22 -5 -22 -9z"/>
<path d="M1325 530 c-3 -6 1 -7 9 -4 18 7 21 14 7 14 -6 0 -13 -4 -16 -10z"/>
<path d="M1530 531 c0 -14 29 -21 36 -9 4 7 3 8 -4 4 -7 -4 -12 -2 -12 3 0 6
-4 11 -10 11 -5 0 -10 -4 -10 -9z"/>
<path d="M1220 515 c-9 -11 -9 -15 -1 -15 6 0 11 4 11 10 0 5 7 7 15 4 8 -3
13 -11 12 -17 -1 -7 4 -12 12 -12 8 0 15 6 17 13 1 7 0 8 -3 2 -2 -5 -9 -10
-14 -10 -6 0 -8 4 -4 9 3 6 -3 15 -14 20 -14 8 -22 7 -31 -4z"/>
<path d="M630 510 c0 -5 5 -10 10 -10 6 0 10 5 10 10 0 6 -4 10 -10 10 -5 0
-10 -4 -10 -10z"/>
<path d="M906 512 c-3 -5 1 -9 9 -9 8 0 12 4 9 9 -3 4 -7 8 -9 8 -2 0 -6 -4
-9 -8z"/>
<path d="M977 513 c-2 -4 0 -17 4 -28 9 -18 9 -18 5 3 -3 16 1 22 14 22 13 0
18 -6 15 -20 -2 -11 1 -23 7 -26 7 -4 8 -2 4 4 -4 7 -2 12 3 12 6 0 11 -5 11
-12 0 -6 3 -8 7 -4 5 4 1 13 -8 19 -9 7 -16 17 -15 22 1 12 -40 19 -47 8z"/>
<path d="M1057 513 c-2 -4 0 -17 4 -28 9 -18 9 -18 5 3 -3 16 1 22 15 22 10 0
18 -5 17 -12 -2 -6 6 -13 17 -15 18 -3 18 -2 2 5 -10 4 -17 12 -15 17 4 12
-38 19 -45 8z"/>
<path d="M1137 513 c-2 -4 0 -17 4 -28 9 -18 9 -18 5 3 -3 16 1 22 14 22 13 0
18 -6 15 -20 -2 -11 1 -23 7 -26 7 -4 8 -2 4 4 -4 7 -2 12 3 12 6 0 11 -5 11
-12 0 -6 3 -8 7 -4 5 4 1 13 -8 19 -9 7 -16 17 -15 22 1 12 -40 19 -47 8z"/>
<path d="M1335 511 c-3 -5 0 -13 6 -17 8 -4 9 -3 5 4 -11 19 5 14 21 -5 13
-16 13 -16 3 5 -11 23 -25 28 -35 13z"/>
<path d="M1419 518 c0 -2 -2 -14 -5 -28 -3 -18 -2 -21 5 -10 5 8 7 18 5 22
-10 15 9 8 23 -9 13 -16 13 -16 3 5 -9 18 -28 30 -31 20z"/>
<path d="M1499 518 c-6 -21 -5 -37 2 -32 5 3 6 10 3 16 -5 8 -1 9 10 5 10 -4
15 -3 11 3 -5 9 -24 14 -26 8z"/>
<path d="M1579 518 c0 -2 -2 -14 -5 -28 -3 -18 -2 -21 5 -10 5 8 7 18 4 24 -4
5 1 7 11 3 10 -4 15 -3 11 3 -5 9 -24 14 -26 8z"/>
<path d="M510 506 c0 -2 8 -10 18 -17 15 -13 16 -12 3 4 -13 16 -21 21 -21 13z"/>
<path d="M1313 484 c0 -17 2 -22 7 -13 5 6 6 18 3 26 -8 19 -10 16 -10 -13z"/>
<path d="M598 493 c7 -3 16 -2 19 1 4 3 -2 6 -13 5 -11 0 -14 -3 -6 -6z"/>
<path d="M668 493 c7 -3 16 -2 19 1 4 3 -2 6 -13 5 -11 0 -14 -3 -6 -6z"/>
<path d="M746 492 c-2 -4 4 -8 14 -8 10 0 16 4 14 8 -3 4 -9 8 -14 8 -5 0 -11
-4 -14 -8z"/>
<path d="M838 493 c7 -3 16 -2 19 1 4 3 -2 6 -13 5 -11 0 -14 -3 -6 -6z"/>
<path d="M910 480 c8 -5 20 -10 25 -10 6 0 3 5 -5 10 -8 5 -19 10 -25 10 -5 0
-3 -5 5 -10z"/>
<path d="M1515 479 c-11 -16 -1 -19 13 -3 7 8 8 14 3 14 -5 0 -13 -5 -16 -11z"/>
<path d="M1595 479 c-4 -6 -5 -12 -2 -15 2 -3 7 2 10 11 7 17 1 20 -8 4z"/>
<path d="M574 468 c-4 -7 -3 -8 4 -4 11 7 17 -6 13 -27 -1 -5 3 -6 9 -2 7 4 7
12 0 26 -12 22 -16 23 -26 7z"/>
<path d="M630 470 c0 -5 5 -10 10 -10 6 0 10 5 10 10 0 6 -4 10 -10 10 -5 0
-10 -4 -10 -10z"/>
<path d="M684 465 c-4 -8 -10 -13 -14 -10 -4 3 -11 -2 -14 -11 -3 -9 -2 -12 5
-9 5 4 18 1 27 -6 14 -11 15 -11 5 0 -13 16 -6 44 10 34 6 -3 7 -1 3 5 -10 16
-15 15 -22 -3z"/>
<path d="M814 468 c-4 -7 -3 -8 4 -4 7 4 12 1 12 -8 0 -9 5 -16 10 -16 7 0 7
6 0 20 -12 23 -16 24 -26 8z"/>
<path d="M870 470 c0 -5 5 -10 10 -10 6 0 10 5 10 10 0 6 -4 10 -10 10 -5 0
-10 -4 -10 -10z"/>
<path d="M756 457 c3 -10 9 -15 12 -12 3 3 0 11 -7 18 -10 9 -11 8 -5 -6z"/>
<path d="M1331 454 c0 -11 3 -14 6 -6 3 7 2 16 -1 19 -3 4 -6 -2 -5 -13z"/>
<path d="M1490 456 c0 -8 4 -17 9 -20 5 -4 7 3 4 14 -6 23 -13 26 -13 6z"/>
<path d="M915 450 c-3 -5 -1 -10 4 -10 6 0 11 5 11 10 0 6 -2 10 -4 10 -3 0
-8 -4 -11 -10z"/>
<path d="M995 450 c3 -5 8 -10 11 -10 2 0 4 5 4 10 0 6 -5 10 -11 10 -5 0 -7
-4 -4 -10z"/>
<path d="M1056 443 c-3 -8 -1 -11 5 -8 5 4 18 1 27 -7 15 -11 15 -11 5 3 -7 9
-11 18 -8 21 3 2 -2 5 -10 5 -8 0 -17 -7 -19 -14z"/>
<path d="M1155 450 c3 -5 8 -10 11 -10 2 0 4 5 4 10 0 6 -5 10 -11 10 -5 0 -7
-4 -4 -10z"/>
<path d="M1217 446 c-4 -11 -1 -13 10 -9 10 4 14 2 10 -4 -3 -5 0 -10 8 -10
13 0 12 4 -2 19 -19 22 -19 22 -26 4z"/>
<path d="M1280 450 c-9 -6 -10 -10 -3 -10 6 0 15 5 18 10 8 12 4 12 -15 0z"/>
<path d="M1467 437 c-3 -8 1 -14 8 -14 7 0 11 6 8 14 -3 7 -6 13 -8 13 -2 0
-5 -6 -8 -13z"/>
<path d="M806 415 c-11 -8 -15 -15 -9 -15 6 0 16 7 23 15 16 19 11 19 -14 0z"/>
<path d="M1015 420 c-3 -6 -17 -8 -30 -6 -14 3 -27 1 -29 -3 -3 -3 12 -7 33
-7 25 0 38 4 38 13 0 16 -4 16 -12 3z"/>
<path d="M1116 417 c3 -10 9 -15 12 -12 3 3 0 11 -7 18 -10 9 -11 8 -5 -6z"/>
<path d="M1175 419 c-4 -6 -14 -8 -22 -5 -8 3 -11 2 -8 -3 8 -14 42 -9 42 6 0
16 -4 16 -12 2z"/>
<path d="M1308 423 c7 -3 16 -2 19 1 4 3 -2 6 -13 5 -11 0 -14 -3 -6 -6z"/>
<path d="M1373 417 c0 -8 6 -14 14 -14 9 0 10 4 2 14 -6 7 -12 13 -14 13 -1 0
-2 -6 -2 -13z"/>
<path d="M1435 419 c-4 -6 -5 -12 -2 -15 2 -3 7 2 10 11 7 17 1 20 -8 4z"/>
<path d="M1533 416 c0 -14 50 -17 63 -4 4 4 -4 5 -16 3 -13 -3 -29 0 -35 5 -8
7 -12 5 -12 -4z"/>
<path d="M555 409 c-2 -3 8 -5 23 -4 15 1 32 -2 38 -6 6 -5 11 -4 11 4 0 13
-65 19 -72 6z"/>
<path d="M653 403 c0 -9 4 -10 14 -2 7 6 13 12 13 14 0 1 -6 2 -13 2 -8 0 -14
-6 -14 -14z"/>
<path d="M1053 403 c0 -9 4 -10 14 -2 7 6 13 12 13 14 0 1 -6 2 -13 2 -8 0
-14 -6 -14 -14z"/>
<path d="M1495 411 c-3 -5 -2 -12 3 -15 5 -3 9 1 9 9 0 17 -3 19 -12 6z"/>
<path d="M706 388 c3 -4 9 -8 15 -8 5 0 9 4 9 8 0 5 -7 9 -15 9 -8 0 -12 -4
-9 -9z"/>
<path d="M1270 386 c7 -7 13 -7 20 0 6 6 3 10 -10 10 -13 0 -16 -4 -10 -10z"/>
<path d="M1530 386 c0 -2 8 -10 18 -17 15 -13 16 -12 3 4 -13 16 -21 21 -21
13z"/>
<path d="M973 360 c1 -21 10 -18 13 5 1 8 -2 15 -6 15 -5 0 -8 -9 -7 -20z"/>
<path d="M690 349 c0 -5 5 -7 10 -4 6 3 10 8 10 11 0 2 -4 4 -10 4 -5 0 -10
-5 -10 -11z"/>
<path d="M595 339 c-4 -6 -5 -12 -2 -15 2 -3 7 2 10 11 7 17 1 20 -8 4z"/>
<path d="M1035 341 c-3 -5 -2 -12 3 -15 5 -3 9 1 9 9 0 17 -3 19 -12 6z"/>
<path d="M739 338 c-5 -18 -6 -38 -1 -34 7 8 12 36 6 36 -2 0 -4 -1 -5 -2z"/>
<path d="M1210 330 c0 -5 5 -10 11 -10 5 0 7 5 4 10 -3 6 -8 10 -11 10 -2 0
-4 -4 -4 -10z"/>
<path d="M1337 325 c-4 -8 -3 -16 1 -19 4 -3 9 4 9 15 2 23 -3 25 -10 4z"/>
<path d="M1575 330 c-3 -5 -1 -10 4 -10 6 0 11 5 11 10 0 6 -2 10 -4 10 -3 0
-8 -4 -11 -10z"/>
<path d="M870 327 c0 -2 6 -10 14 -16 11 -9 16 -9 22 1 4 7 4 10 -1 6 -4 -4
-14 -3 -22 3 -7 6 -13 9 -13 6z"/>
<path d="M975 321 c-3 -5 -2 -12 3 -15 5 -3 9 1 9 9 0 17 -3 19 -12 6z"/>
<path d="M936 308 c3 -5 10 -6 15 -3 13 9 11 12 -6 12 -8 0 -12 -4 -9 -9z"/>
<path d="M1086 312 c-3 -5 1 -9 9 -9 8 0 12 4 9 9 -3 4 -7 8 -9 8 -2 0 -6 -4
-9 -8z"/>
<path d="M1175 311 c-3 -5 -2 -12 3 -15 5 -3 9 1 9 9 0 17 -3 19 -12 6z"/>
<path d="M1373 305 c0 -8 4 -12 9 -9 5 3 6 10 3 15 -9 13 -12 11 -12 -6z"/>
<path d="M1450 315 c0 -7 30 -13 34 -7 3 4 -4 9 -15 9 -10 1 -19 0 -19 -2z"/>
<path d="M786 288 c3 -5 10 -6 15 -3 13 9 11 12 -6 12 -8 0 -12 -4 -9 -9z"/>
<path d="M1265 289 c-3 -4 2 -6 10 -5 21 3 28 13 10 13 -9 0 -18 -4 -20 -8z"/>
<path d="M1516 292 c-3 -5 1 -9 9 -9 8 0 12 4 9 9 -3 4 -7 8 -9 8 -2 0 -6 -4
-9 -8z"/>
<path d="M593 245 c0 -8 4 -12 9 -9 5 3 6 10 3 15 -9 13 -12 11 -12 -6z"/>
</g>
</svg>
